<svg width="5" height="12" viewBox="0 0 5 12" fill="none" xmlns="http://www.w3.org/2000/svg">
<path d="M0.257969 9.64C0.257969 10.1467 0.437969 10.58 0.797969 10.94C1.15797 11.3 1.60464 11.48 2.13797 11.48C2.69797 11.48 3.1513 11.3 3.49797 10.94C3.84464 10.58 4.01797 10.1467 4.01797 9.64C4.01797 9.13333 3.84464 8.7 3.49797 8.34C3.1513 7.98 2.69797 7.8 2.13797 7.8C1.60464 7.8 1.15797 7.98 0.797969 8.34C0.437969 8.7 0.257969 9.13333 0.257969 9.64ZM0.257969 2.16C0.257969 2.66667 0.437969 3.10667 0.797969 3.48C1.15797 3.84 1.60464 4.02 2.13797 4.02C2.69797 4.02 3.1513 3.84 3.49797 3.48C3.84464 3.10667 4.01797 2.66667 4.01797 2.16C4.01797 1.65333 3.84464 1.22 3.49797 0.859999C3.1513 0.499999 2.69797 0.319999 2.13797 0.319999C1.60464 0.319999 1.15797 0.499999 0.797969 0.859999C0.437969 1.22 0.257969 1.65333 0.257969 2.16Z" fill="#212529"/>
</svg>
