<svg width="36" height="31" viewBox="0 0 36 31" fill="none" xmlns="http://www.w3.org/2000/svg">
<g clip-path="url(#clip0_206_8035)">
<mask id="mask0_206_8035" style="mask-type:luminance" maskUnits="userSpaceOnUse" x="3" y="0" width="30" height="31">
<path d="M32.2287 0.5H3.42871V30.5H32.2287V0.5Z" fill="white"/>
</mask>
<g mask="url(#mask0_206_8035)">
<path d="M30.4927 18.5922C30.0329 18.4499 30.0329 18.4499 30.0329 17.9502C30.0329 14.8332 30.0255 11.7154 30.0386 8.59759C30.0419 7.81646 29.7315 7.29486 29.0565 6.93252C25.2396 4.8832 21.4292 2.82292 17.6239 0.750842C17.0145 0.418838 16.4643 0.413782 15.8526 0.747471C12.0291 2.82966 8.19905 4.89668 4.36573 6.95949C3.7252 7.30413 3.42465 7.81309 3.42875 8.55546C3.43943 10.8618 3.43286 13.1682 3.43286 15.4745C3.43286 17.8237 3.43368 20.1722 3.43204 22.5207C3.43122 23.183 3.70796 23.6634 4.28279 23.9742C8.16702 26.0716 12.0505 28.1698 15.9306 30.2765C16.4767 30.573 16.9924 30.5748 17.5376 30.2781C19.8871 28.9981 22.2439 27.7316 24.5933 26.4525C24.774 26.3539 24.8873 26.3472 25.0458 26.4938C25.4884 26.9016 25.9631 27.2732 26.4714 27.5901C27.2688 28.0881 28.0974 28.1007 28.8865 27.5994C29.6272 27.1283 30.3154 26.5755 30.9313 25.9351C31.3147 25.5357 31.5759 25.074 31.7032 24.5254C31.8617 23.8386 31.9693 23.1434 32.0662 22.4466C32.1187 22.0716 32.1582 21.6949 32.2041 21.3191C32.3659 20.007 31.7155 18.9706 30.4927 18.5922ZM21.2092 3.5476C22.1084 4.0456 23.015 4.53012 23.9479 5.03488C22.9468 5.55731 21.9729 6.06628 20.9973 6.57271C18.0969 8.07852 15.1964 9.58599 12.2927 11.0868C11.671 11.4078 11.3631 11.8966 11.368 12.6196C11.3795 14.4085 11.373 16.1983 11.3697 17.9873C11.3697 18.1162 11.4255 18.2788 11.2605 18.3487C11.0938 18.4212 11.0264 18.2586 10.9394 18.1692C10.6791 17.9004 10.4146 17.6334 10.1757 17.346C9.83897 16.9415 9.44234 16.8143 8.94059 16.9542C8.1892 17.1631 8.26639 17.1185 8.26557 16.3963C8.26311 14.5012 8.2746 12.606 8.25818 10.7118C8.25407 10.2282 8.43391 9.94496 8.856 9.72673C12.8289 7.67658 16.7945 5.61124 20.7592 3.54507C20.9234 3.45996 21.0457 3.45743 21.2092 3.5476ZM7.98226 5.86825L16.2007 1.41485C16.5752 1.21009 16.8955 1.20334 17.2658 1.41232C18.1158 1.89347 18.9813 2.34598 19.8403 2.81112C19.9388 2.86505 20.0341 2.92403 20.1703 3.00409C19.6785 3.26026 19.2203 3.50041 18.7612 3.73804C15.3327 5.52024 11.9034 7.3016 8.47415 9.08293C8.43802 9.10153 8.39203 9.11079 8.36575 9.13942C8.05863 9.46719 7.76711 9.35173 7.42714 9.1647C6.50987 8.65911 5.57453 8.1889 4.61537 7.68838C5.75847 7.06987 6.87036 6.46906 7.98226 5.86825ZM16.3633 16.5564V29.6428C15.6686 29.2695 15.001 28.9122 14.3341 28.5516C11.1217 26.814 7.91081 25.074 4.69503 23.3423C4.35177 23.1569 4.16782 22.9134 4.16865 22.5022C4.17439 17.8381 4.17439 13.1732 4.17522 8.50828V8.31699C4.80014 8.64057 5.38237 8.94055 5.96377 9.24219C6.4376 9.48827 6.91061 9.73856 7.38607 9.98293C7.48955 10.036 7.56345 10.0739 7.55771 10.2298C7.48872 12.2083 7.5421 14.1886 7.52567 16.1671C7.52404 16.4098 7.51746 16.6524 7.52896 16.8935C7.55934 17.5356 8.07095 17.9763 8.66139 17.7825C9.23704 17.5938 9.63121 17.7201 9.96461 18.2172C10.1026 18.4229 10.2997 18.5872 10.4721 18.7667C10.817 19.1265 11.1751 19.2276 11.5512 19.0548C11.9535 18.8703 12.1129 18.5324 12.112 18.0909C12.1087 16.3323 12.1104 14.5737 12.1104 12.8159V12.4359C12.9817 12.8875 13.8176 13.3232 14.6552 13.7563C15.1767 14.0251 15.6957 14.2973 16.2237 14.5492C16.3609 14.6149 16.365 14.7 16.3642 14.8197C16.3625 15.3986 16.3633 15.9775 16.3633 16.5564ZM16.1695 13.7023C15.0667 13.1033 13.9465 12.5378 12.8339 11.9589C12.7534 11.9168 12.6754 11.8704 12.5596 11.8056C13.4514 11.3396 14.3104 10.8896 15.171 10.443C18.2734 8.83354 21.3767 7.2266 24.4759 5.60956C24.6836 5.5017 24.834 5.50507 25.0376 5.61798C26.2891 6.30896 27.5496 6.98224 28.857 7.68922C27.6071 8.33974 26.4041 8.96668 25.201 9.5919C22.5642 10.962 19.924 12.3255 17.2938 13.7066C16.8971 13.9147 16.5629 13.9156 16.1695 13.7023ZM17.1024 29.6487V29.2678C17.1024 24.5397 17.1065 19.8108 17.0942 15.0826C17.0934 14.7481 17.178 14.5914 17.4835 14.4363C20.039 13.1336 22.5814 11.8031 25.1271 10.4809C26.4319 9.80344 27.736 9.12339 29.0417 8.4476C29.1107 8.41137 29.1731 8.34395 29.2905 8.37177V8.60771C29.2914 11.7356 29.2889 14.8635 29.2996 17.9906C29.3004 18.2526 29.2297 18.3007 28.9941 18.2628C27.5701 18.0327 26.1725 18.1769 24.8044 18.6217C23.63 19.0043 22.9977 20.0905 23.171 21.3452C23.3057 22.3134 23.4125 23.285 23.6137 24.2422C23.7286 24.7942 23.8953 25.3158 24.2928 25.7616C21.8916 27.0592 19.5159 28.3442 17.1024 29.6487ZM31.4979 20.9803C31.3698 22.1078 31.2401 23.2352 30.9814 24.3433C30.8812 24.7689 30.6767 25.1169 30.3827 25.4228C29.8243 26.0025 29.1969 26.4946 28.5309 26.932C27.9922 27.2842 27.4174 27.2976 26.8754 26.9488C26.1799 26.5005 25.5393 25.9764 24.9514 25.3824C24.4891 24.9138 24.3593 24.3105 24.2583 23.6995C24.1171 22.8502 23.9996 21.9957 23.8912 21.1404C23.7853 20.307 24.2443 19.5984 25.0237 19.3447C26.7449 18.7836 28.471 18.7785 30.2021 19.2917C30.9033 19.4998 30.9067 19.515 30.4221 20.04C29.5615 20.9736 28.7017 21.9072 27.8395 22.8384C27.534 23.1687 27.4223 23.167 27.1053 22.8485C27.0101 22.7532 26.919 22.6513 26.813 22.5704C26.6725 22.4634 26.5207 22.4785 26.3868 22.5873C26.2521 22.6976 26.2152 22.8451 26.2743 23.0119C26.4796 23.5908 27.3107 23.981 27.8658 23.7585C28.0612 23.681 28.2123 23.5403 28.3552 23.3852C29.2848 22.3749 30.2177 21.3671 31.1489 20.3568C31.1973 20.3037 31.236 20.2404 31.2926 20.1638C31.4766 20.4394 31.5283 20.7098 31.4979 20.9803Z" fill="#FD7E00" stroke="#FD7E00" stroke-width="1.02857"/>
</g>
</g>
<defs>
<clipPath id="clip0_206_8035">
<rect width="36" height="30" fill="white" transform="translate(0 0.5)"/>
</clipPath>
</defs>
</svg>
