<svg width="36" height="31" viewBox="0 0 36 31" fill="none" xmlns="http://www.w3.org/2000/svg">
<g clip-path="url(#clip0_206_8017)">
<path d="M4.11401 23.2886H1.60764C1.07477 23.2886 0.642578 22.8577 0.642578 22.3263V14.8667C0.642578 14.7135 0.679035 14.5629 0.749331 14.427L3.94218 8.23436C4.10707 7.9133 4.43859 7.71167 4.80049 7.71167H15.3962V23.2886" fill="#FD7E00"/>
<path d="M4.11401 23.2886H1.60764C1.07477 23.2886 0.642578 22.8577 0.642578 22.3263V14.8667C0.642578 14.7135 0.679035 14.5629 0.749331 14.427L3.94218 8.23436C4.10707 7.9133 4.43859 7.71167 4.80049 7.71167H15.3962V23.2886" stroke="#FD7E00" stroke-width="1.60714" stroke-miterlimit="10" stroke-linecap="round" stroke-linejoin="round"/>
<path d="M3.29297 15.4999L5.87832 10.3076H11.9246V15.4999H3.29297Z" fill="#FD7E00" stroke="#FD7E00" stroke-width="1.60714" stroke-miterlimit="10" stroke-linecap="round" stroke-linejoin="round"/>
<path d="M24.9427 23.2883H14.9302H11.9248" fill="#FD7E00"/>
<path d="M24.9427 23.2883H14.9302H11.9248" stroke="#FD7E00" stroke-width="1.60714" stroke-miterlimit="10" stroke-linecap="round" stroke-linejoin="round"/>
<path d="M31.8858 23.2885H35.3573V5.64413C35.3573 4.87394 34.7316 4.25 33.9592 4.25H16.7955C16.0232 4.25 15.3975 4.87394 15.3975 5.64413V9.15327" fill="#FD7E00"/>
<path d="M31.8858 23.2885H35.3573V5.64413C35.3573 4.87394 34.7316 4.25 33.9592 4.25H16.7955C16.0232 4.25 15.3975 4.87394 15.3975 5.64413V9.15327" stroke="#FD7E00" stroke-width="1.60714" stroke-miterlimit="10" stroke-linecap="round" stroke-linejoin="round"/>
<path d="M24.0751 19.8271H15.3965H24.0751Z" fill="#FD7E00"/>
<path d="M24.0751 19.8271H15.3965" stroke="#FD7E00" stroke-width="1.60714" stroke-miterlimit="10" stroke-linecap="round" stroke-linejoin="round"/>
<path d="M35.3568 19.8271H33.6211H35.3568Z" fill="#FD7E00"/>
<path d="M35.3568 19.8271H33.6211" stroke="#FD7E00" stroke-width="1.60714" stroke-miterlimit="10" stroke-linecap="round" stroke-linejoin="round"/>
<path d="M28.4148 26.7502C26.4976 26.7502 24.9434 25.2004 24.9434 23.2887C24.9434 21.3769 26.4976 19.8271 28.4148 19.8271C30.332 19.8271 31.8862 21.3769 31.8862 23.2887C31.8862 25.2004 30.332 26.7502 28.4148 26.7502Z" fill="#FD7E00" stroke="#FD7E00" stroke-width="1.60714" stroke-miterlimit="10" stroke-linecap="round" stroke-linejoin="round"/>
<path d="M7.58565 26.7502C5.66847 26.7502 4.11426 25.2004 4.11426 23.2887C4.11426 21.3769 5.66847 19.8271 7.58565 19.8271C9.50291 19.8271 11.0571 21.3769 11.0571 23.2887C11.0571 25.2004 9.50291 26.7502 7.58565 26.7502Z" fill="#FD7E00" stroke="#FD7E00" stroke-width="1.60714" stroke-miterlimit="10" stroke-linecap="round" stroke-linejoin="round"/>
</g>
<defs>
<clipPath id="clip0_206_8017">
<rect width="36" height="30" fill="white" transform="translate(0 0.5)"/>
</clipPath>
</defs>
</svg>
