<svg width="231" height="118" viewBox="0 0 231 118" fill="none" xmlns="http://www.w3.org/2000/svg">
<rect width="231" height="118" rx="4" fill="#F0F5F7"/>
<path fill-rule="evenodd" clip-rule="evenodd" d="M93.1906 47.6142C94.254 48.0555 95.2142 48.7127 96.0106 49.5442C96.9453 50.4993 97.6857 51.6268 98.1906 52.8642C98.9548 54.8309 99.2956 56.9368 99.1906 59.0442C99.3066 61.1921 99.0183 63.3427 98.3406 65.3842C97.8761 66.7424 97.1336 67.9889 96.1606 69.0442C94.7775 70.4375 93.0536 71.4442 91.1606 71.9642C89.2806 72.5142 86.3606 72.8042 81.5206 72.7542C78.8449 72.8118 76.1692 72.6479 73.5206 72.2642C72.0885 71.9973 70.6924 71.5643 69.3606 70.9742C68.2998 70.3801 67.3354 69.6281 66.5006 68.7442C65.6463 67.7135 65.0193 66.514 64.6606 65.2242C64.1445 63.2069 63.9288 61.1245 64.0206 59.0442C63.9493 56.9811 64.2334 54.921 64.8606 52.9542C65.4395 51.6392 66.2375 50.432 67.2206 49.3842C68.6689 48.0469 70.4403 47.1095 72.3606 46.6642C74.3606 46.1242 76.5706 46.0242 81.5206 46.0242C84.3688 45.9233 87.2195 46.138 90.0206 46.6642C91.1114 46.8479 92.1759 47.1636 93.1906 47.6042V47.6142ZM87.6506 53.2542C87.3972 52.5882 87.0612 51.9566 86.6506 51.3742C86.2029 50.8608 85.646 50.4542 85.0206 50.1842C83.9679 49.8185 82.8646 49.6194 81.7506 49.5942C80.6474 49.567 79.547 49.7155 78.4906 50.0342C77.8356 50.2245 77.2513 50.6037 76.8106 51.1242C76.298 51.724 75.8798 52.3984 75.5706 53.1242C75.1439 54.9893 74.9624 56.9021 75.0306 58.8142C74.9677 61.0179 75.1522 63.2216 75.5806 65.3842C75.7083 66.2066 76.0893 66.9686 76.6706 67.5642C77.1946 68.107 77.8651 68.4857 78.6006 68.6542C79.6418 68.8609 80.6992 68.9746 81.7606 68.9942C82.8349 69.036 83.9082 68.887 84.9306 68.5542C85.5639 68.2521 86.121 67.8112 86.5606 67.2642C86.9941 66.6525 87.3313 65.978 87.5606 65.2642C87.9143 63.1232 88.0649 60.9536 88.0106 58.7842C88.1207 56.9136 88.0031 55.0365 87.6606 53.1942L87.6506 53.2542ZM114.861 68.4442V61.8142L117.291 60.3842L124.211 68.4942H121.641V72.2042H139.901V68.4442H136.091L124.411 55.8242L132.921 50.5342H137.771V46.8242H121.691V50.5342H124.611L114.861 56.9142V50.5342H118.621V46.8242H100.501V50.5342H104.311V68.4442H100.501V72.1542H118.181V68.4442H114.861ZM156.921 68.4442V50.5342H160.681V46.8242H141.681V50.5342H145.881V68.4442H141.681V72.1542H160.681V68.4442H156.921ZM166.021 49.3442C166.209 49.3216 166.381 49.2264 166.501 49.0789C166.62 48.9315 166.678 48.7432 166.661 48.5542C166.661 48.0142 166.221 47.8142 165.661 47.8142H164.501V50.6842H164.841V49.3842H165.531L166.281 50.6742H166.721L166.021 49.3842V49.3442ZM166.271 48.5542C166.271 48.9542 165.921 49.0542 165.671 49.0542H164.881V48.1542H165.621C165.871 48.1542 166.271 48.1542 166.271 48.5542Z" fill="#CF4138"/>
<path fill-rule="evenodd" clip-rule="evenodd" d="M167.26 47.4642C166.775 47.0193 166.139 46.7731 165.48 46.7742C164.824 46.7742 164.195 47.0341 163.73 47.497C163.266 47.9599 163.003 48.5882 163 49.2442C163.023 49.8928 163.287 50.5096 163.74 50.9742C164.206 51.4272 164.831 51.6787 165.48 51.6742C166.141 51.6765 166.778 51.4261 167.26 50.9742C167.7 50.5046 167.946 49.887 167.95 49.2442C167.952 48.5854 167.705 47.9501 167.26 47.4642ZM165.5 51.3242C165.224 51.3281 164.949 51.2774 164.692 51.1749C164.435 51.0724 164.201 50.9201 164.003 50.7268C163.805 50.5336 163.647 50.3031 163.539 50.0486C163.43 49.7942 163.373 49.5208 163.37 49.2442C163.371 48.9596 163.428 48.6779 163.538 48.4153C163.648 48.1527 163.808 47.9145 164.01 47.7142C164.207 47.5222 164.441 47.3712 164.696 47.2699C164.952 47.1686 165.225 47.1191 165.5 47.1242C166.067 47.1163 166.616 47.3277 167.03 47.7142C167.316 48.0165 167.508 48.3955 167.582 48.8049C167.655 49.2143 167.608 49.6364 167.446 50.0194C167.283 50.4024 167.013 50.7298 166.667 50.9616C166.322 51.1933 165.916 51.3193 165.5 51.3242Z" fill="#CF4138"/>
</svg>
