<svg width="231" height="118" viewBox="0 0 231 118" fill="none" xmlns="http://www.w3.org/2000/svg">
<rect width="231" height="118" rx="4" fill="#F0F5F7"/>
<path d="M62.08 64.79C63.1197 66.4895 64.5772 67.8946 66.3136 68.8713C68.0501 69.8481 70.0077 70.364 72 70.37C78.14 70.37 81.52 65.07 81.52 65.07L81.96 66.48C79.08 70.18 73.99 72.4 68.3 72.4C61.76 72.4 56.12 69.28 53.52 64.78C52.5327 63.0855 52.0085 61.1611 52 59.2C52 51.91 59.3 46 68.3 46C74.67 46 79.79 48.7 82.48 52.7L71.8 59.06L77.89 49.7C76.0952 48.4435 73.987 47.7096 71.8 47.58C68.7751 47.6089 65.8832 48.8274 63.7498 50.9721C61.6164 53.1167 60.413 56.015 60.4 59.04C60.4173 61.0752 60.9988 63.0657 62.08 64.79ZM90.66 64.79C90.6284 65.0053 90.6117 65.2224 90.61 65.44C90.6632 66.5433 91.139 67.5837 91.9386 68.3457C92.7383 69.1077 93.8005 69.5327 94.905 69.5327C96.0095 69.5327 97.0717 69.1077 97.8714 68.3457C98.671 67.5837 99.1467 66.5433 99.2 65.44C99.2149 65.2236 99.2149 65.0064 99.2 64.79C99.0511 63.7704 98.5403 62.8385 97.7608 62.1645C96.9814 61.4906 95.9854 61.1197 94.955 61.1197C93.9246 61.1197 92.9286 61.4906 92.1492 62.1645C91.3697 62.8385 90.8589 63.7704 90.71 64.79H90.66ZM106.6 64.79L108.73 71.98H101.19L99.72 67.06C98.72 69.9 95.41 71.98 91.45 71.98C86.72 71.98 82.89 68.98 82.89 65.31C82.89 65.14 82.89 64.97 82.89 64.79C83.23 61.35 86.89 58.64 91.43 58.64C93.7757 58.5935 96.0592 59.3961 97.86 60.9L95.86 54.08H87.26C89.7707 52.8386 92.3674 51.7792 95.03 50.91C101.38 48.61 103.39 54.08 103.39 54.08L106.57 64.79H106.6ZM130.54 64.79V71.98H122.84V56.17C122.837 55.6121 122.614 55.078 122.218 54.6845C121.823 54.2909 121.288 54.07 120.73 54.07C120.299 54.0599 119.876 54.1832 119.518 54.4231C119.16 54.663 118.885 55.0077 118.73 55.41V71.97H111.16V54.07H106.74C106.74 54.07 112.88 50.35 115.01 50.35C115.957 50.3587 116.865 50.7272 117.551 51.3809C118.236 52.0346 118.647 52.9245 118.7 53.87C121.7 52.27 124.61 50.35 126.64 50.35C127.643 50.3522 128.606 50.7449 129.325 51.4449C130.044 52.1449 130.461 53.0972 130.49 54.1V64.78L130.54 64.79ZM142.41 64.79L143.48 68.34C143.496 69.073 143.799 69.7703 144.325 70.2812C144.851 70.7921 145.557 71.0754 146.29 71.07C147.035 71.0595 147.746 70.7553 148.269 70.2235C148.791 69.6918 149.083 68.9754 149.08 68.23C149.09 68.1202 149.09 68.0098 149.08 67.9L148.17 64.78L144.97 53.84C144.89 53.1348 144.549 52.4851 144.014 52.0187C143.48 51.5523 142.789 51.303 142.08 51.32C141.343 51.3737 140.646 51.6744 140.102 52.1735C139.557 52.6726 139.197 53.3408 139.08 54.07L142.32 64.78L142.41 64.79ZM154.68 64.79C153.945 67.0058 152.531 68.9338 150.638 70.3003C148.745 71.6667 146.47 72.4021 144.135 72.4021C141.8 72.4021 139.525 71.6667 137.632 70.3003C135.739 68.9338 134.325 67.0058 133.59 64.79C133.217 63.668 133.031 62.4923 133.04 61.31C133.04 59.7032 133.389 58.1154 134.062 56.6565C134.735 55.1976 135.718 53.9024 136.941 52.8602C138.164 51.818 139.598 51.0538 141.146 50.6203C142.693 50.1869 144.316 50.0945 145.902 50.3497C147.489 50.6048 149.001 51.2013 150.334 52.098C151.668 52.9947 152.791 54.1702 153.625 55.5433C154.46 56.9163 154.986 58.4543 155.168 60.0507C155.351 61.6472 155.184 63.2642 154.68 64.79ZM167.44 64.79V71.98H159.87V54.07H155.64C155.64 54.07 161.64 50.35 163.73 50.35C164.676 50.361 165.583 50.7304 166.268 51.3836C166.953 52.0368 167.364 52.9253 167.42 53.87C170.42 52.27 173.33 50.35 175.36 50.35C176.363 50.3522 177.326 50.7449 178.045 51.4449C178.764 52.1449 179.181 53.0972 179.21 54.1V71.97H171.5V56.17C171.5 55.613 171.279 55.0789 170.885 54.6851C170.491 54.2913 169.957 54.07 169.4 54.07C168.969 54.0599 168.546 54.1832 168.188 54.4231C167.83 54.663 167.555 55.0077 167.4 55.41V64.78L167.44 64.79Z" fill="#CD202A"/>
</svg>
