<svg width="232" height="118" viewBox="0 0 232 118" fill="none" xmlns="http://www.w3.org/2000/svg">
<rect width="232" height="118" rx="4" fill="#F0F5F7"/>
<path d="M179.891 48.1927C178.141 38.1227 147.891 34.9727 112.301 41.1927C98.9813 43.3869 85.9317 46.987 73.371 51.9327C74.6524 51.8406 75.92 52.2453 76.911 53.0627C77.2003 53.3731 77.4246 53.7383 77.5706 54.1368C77.7166 54.5352 77.7813 54.9588 77.761 55.3827V56.3827H74.271V55.5027C74.2847 55.343 74.2634 55.1822 74.2084 55.0316C74.1535 54.881 74.0662 54.7442 73.9529 54.6309C73.8395 54.5175 73.7028 54.4303 73.5522 54.3753C73.4016 54.3204 73.2408 54.299 73.081 54.3127C72.8079 54.2803 72.5327 54.3533 72.3116 54.5168C72.0905 54.6803 71.9401 54.9221 71.891 55.1927C71.8409 55.42 71.8409 55.6554 71.891 55.8827C72.261 57.4127 77.441 58.3627 78.001 61.1727C78.1322 61.917 78.1322 62.6784 78.001 63.4227C77.681 65.6927 75.681 66.5727 73.141 66.5727C69.591 66.5727 68.141 64.8927 68.141 62.5727V61.4827H71.881V62.8427C71.877 63.0105 71.909 63.1773 71.9751 63.3316C72.0412 63.486 72.1397 63.6243 72.264 63.7372C72.3883 63.8501 72.5354 63.9349 72.6953 63.9859C72.8553 64.0369 73.0244 64.0528 73.191 64.0327C73.4773 64.0753 73.7692 64.0083 74.0083 63.8452C74.2474 63.6821 74.4162 63.4348 74.481 63.1527C74.5845 62.8274 74.5845 62.478 74.481 62.1527C73.791 60.4127 68.961 59.6027 68.361 56.8027C68.2406 56.1919 68.2406 55.5635 68.361 54.9527C68.411 54.6051 68.5156 54.2676 68.671 53.9527C56.981 59.4527 50.171 65.4527 51.081 70.6227C52.831 80.6927 83.081 83.8327 118.671 77.6227C134.301 74.9027 148.361 70.8227 159.061 66.2627H158.601C156.161 66.2627 153.991 65.3527 153.761 62.8627C153.761 62.4127 153.761 62.2227 153.761 61.9627V56.2827C153.762 55.982 153.779 55.6816 153.811 55.3827C154.101 52.9727 156.001 51.9827 158.641 51.9827C160.641 51.9827 163.181 52.5627 163.451 55.3827C163.466 55.6658 163.466 55.9496 163.451 56.2327V56.7627H159.921V55.9627C159.935 55.793 159.935 55.6224 159.921 55.4527C159.874 55.1492 159.711 54.8756 159.467 54.6892C159.223 54.5028 158.916 54.4181 158.611 54.4527C158.306 54.4206 158.001 54.5063 157.757 54.6923C157.514 54.8782 157.35 55.1503 157.301 55.4527C157.277 55.662 157.277 55.8734 157.301 56.0827V62.3027C157.278 62.4719 157.278 62.6435 157.301 62.8127C157.398 63.0904 157.58 63.331 157.82 63.5012C158.06 63.6714 158.347 63.7628 158.641 63.7628C158.935 63.7628 159.222 63.6714 159.462 63.5012C159.702 63.331 159.884 63.0904 159.981 62.8127C159.995 62.643 159.995 62.4724 159.981 62.3027V60.3827H158.591V58.3127H163.491V62.0027C163.507 62.3025 163.507 62.6029 163.491 62.9027C163.442 63.504 163.238 64.0825 162.901 64.5827C174.251 59.1927 180.851 53.2927 179.961 48.1927H179.891ZM87.651 66.0427L85.861 53.9127H85.801L83.971 66.0427H80.211L82.741 52.3427H88.871L91.391 66.0427H87.651ZM105.741 66.0427L105.661 54.1427H105.601L103.381 66.0427H99.851L97.651 54.1427H97.591L97.511 66.0427H94.011L94.311 52.3427H99.941L101.581 62.5227H101.661L103.301 52.3427H108.921L109.231 66.0427H105.741ZM122.211 63.3827C121.841 66.0427 119.211 66.5027 117.401 66.5027C114.401 66.5027 112.461 65.2027 112.461 62.5027V61.4627H116.151V62.8127C116.148 62.9807 116.182 63.1473 116.249 63.3012C116.316 63.4551 116.416 63.5927 116.541 63.7047C116.666 63.8166 116.814 63.9003 116.975 63.95C117.135 63.9997 117.304 64.0143 117.471 63.9927C117.753 64.0326 118.04 63.9655 118.275 63.8044C118.51 63.6434 118.676 63.4002 118.741 63.1227C118.837 62.7962 118.837 62.4492 118.741 62.1227C118.061 60.4127 113.261 59.5827 112.681 56.8227C112.561 56.2153 112.561 55.5901 112.681 54.9827C113.081 52.4827 115.491 51.9827 117.421 51.9827C118.741 51.8848 120.05 52.2923 121.081 53.1227C121.369 53.4298 121.593 53.7915 121.739 54.1866C121.885 54.5817 121.95 55.002 121.931 55.4227V56.4227H118.511V55.5527C118.524 55.3919 118.501 55.2304 118.444 55.0794C118.387 54.9285 118.298 54.7919 118.182 54.6793C118.067 54.5667 117.928 54.4809 117.776 54.4279C117.624 54.3749 117.461 54.3561 117.301 54.3727C117.029 54.34 116.755 54.4116 116.535 54.5731C116.314 54.7346 116.162 54.9739 116.111 55.2427C116.066 55.4705 116.066 55.7049 116.111 55.9327C116.481 57.4527 121.611 58.3827 122.181 61.1727C122.314 61.9025 122.325 62.6495 122.211 63.3827ZM135.011 62.1427C135.011 62.4027 135.011 62.9127 135.011 63.0427C134.801 65.3027 133.191 66.4427 130.231 66.4427C127.271 66.4427 125.641 65.3027 125.431 63.0427C125.431 62.7427 125.431 62.4427 125.431 62.1427V52.3427H128.961V62.4527C128.948 62.6224 128.948 62.793 128.961 62.9627C129.008 63.2587 129.165 63.526 129.4 63.7114C129.636 63.8968 129.932 63.9865 130.231 63.9627C130.529 63.9863 130.824 63.8962 131.058 63.7107C131.292 63.5251 131.446 63.2578 131.491 62.9627C131.505 62.793 131.505 62.6224 131.491 62.4527V52.3427H135.011V62.1427ZM150.241 65.9027H145.321L142.021 55.0527H141.961L142.141 65.9027H138.721V52.3427H143.841L146.841 62.7627H146.911L146.731 52.3427H150.191V65.9027H150.241Z" fill="#2E509F"/>
</svg>
