<svg width="232" height="118" viewBox="0 0 232 118" fill="none" xmlns="http://www.w3.org/2000/svg">
<rect width="232" height="118" rx="4" fill="#F0F5F7"/>
<path fill-rule="evenodd" clip-rule="evenodd" d="M101.46 90.3118V89.1318C99.32 89.4218 96.53 88.3218 96.58 85.8018C96.63 83.2818 98.58 82.4118 101.47 82.4518V81.2518C98.29 81.1418 94.87 82.1418 94.79 85.8018C94.79 89.1318 97.68 90.5718 101.46 90.3118ZM75.28 90.5318C76.2233 90.5617 77.154 90.3093 77.953 89.8069C78.752 89.3046 79.3828 88.5752 79.7647 87.7121C80.1465 86.849 80.2621 85.8916 80.0965 84.9625C79.9309 84.0334 79.4917 83.1748 78.8351 82.4968C78.1786 81.8188 77.3346 81.3523 76.4113 81.1569C75.488 80.9615 74.5273 81.0462 73.6524 81.4001C72.7775 81.7541 72.0282 82.3611 71.5004 83.1435C70.9727 83.9259 70.6905 84.8481 70.69 85.7918C70.6739 87.028 71.1476 88.2202 72.0076 89.1083C72.8676 89.9964 74.044 90.5082 75.28 90.5318ZM75.28 89.2418C76.0942 89.1027 76.833 88.6801 77.3657 88.0487C77.8983 87.4173 78.1905 86.6179 78.1905 85.7918C78.1905 84.9658 77.8983 84.1664 77.3657 83.535C76.833 82.9036 76.0942 82.481 75.28 82.3418C74.4658 82.481 73.727 82.9036 73.1943 83.535C72.6617 84.1664 72.3695 84.9658 72.3695 85.7918C72.3695 86.6179 72.6617 87.4173 73.1943 88.0487C73.727 88.6801 74.4658 89.1027 75.28 89.2418ZM145.75 90.5318C146.694 90.5637 147.625 90.313 148.426 89.8119C149.226 89.3108 149.858 88.5822 150.242 87.7194C150.625 86.8565 150.742 85.8988 150.578 84.9691C150.413 84.0393 149.975 83.1799 149.319 82.5009C148.663 81.8219 147.819 81.3543 146.895 81.158C145.972 80.9618 145.01 81.0459 144.135 81.3994C143.259 81.753 142.51 82.36 141.981 83.1426C141.453 83.9251 141.171 84.8476 141.17 85.7918C141.154 87.0263 141.626 88.2171 142.484 89.1049C143.342 89.9927 144.516 90.5056 145.75 90.5318ZM145.75 89.2418C146.457 89.3649 147.185 89.2675 147.835 88.9629C148.485 88.6583 149.026 88.1611 149.384 87.5389C149.742 86.9167 149.9 86.1994 149.836 85.4844C149.773 84.7693 149.491 84.0911 149.029 83.5416C148.567 82.992 147.948 82.5979 147.254 82.4124C146.561 82.227 145.827 82.2593 145.152 82.5049C144.478 82.7506 143.895 83.1977 143.483 83.7856C143.071 84.3736 142.85 85.074 142.85 85.7918C142.786 86.632 143.054 87.4638 143.596 88.1088C144.138 88.7538 144.911 89.1605 145.75 89.2418ZM62 81.3118H63.55V90.3718H62V81.3118ZM91.65 81.3118H93.2V90.3718H91.65V81.3118ZM127.85 81.3118H129.4V90.3718H127.85V81.3118ZM87.85 81.3118H89.35V90.3718H88.06C86.84 87.3018 84.38 84.2918 82.77 83.3718V90.3718H81.3V81.3118H82.44C84.6817 82.6986 86.5414 84.6236 87.85 86.9118V81.3118ZM138.32 81.3118H139.85V90.3718H138.54C137.31 87.3018 134.86 84.2918 133.24 83.3718V90.3718H131.77V81.3118H132.92C135.17 82.695 137.037 84.6204 138.35 86.9118V81.3118H138.32ZM66.53 85.0018C68.313 86.3662 69.6412 88.2383 70.34 90.3718H68.61C67.754 88.2718 66.2785 86.4823 64.38 85.2418L68.11 81.3118H70.03L66.53 85.0018ZM102.1 90.3518H103.63L106.16 84.4818L109.16 90.3718H110.98L106.19 81.2118L102.1 90.3518ZM151.77 81.3518H153.39V89.2218H156.98V90.4118H151.77V81.3518ZM162.49 81.3518V82.5318H160.17V90.4118H158.62V82.4918H156.3V81.3118L162.49 81.3518ZM161.56 90.3518H163.1L165.62 84.4818L168.62 90.3718H170.43L165.62 81.2318L161.56 90.3518ZM114.65 90.3518H116.31C116.73 88.3518 117.17 86.3518 117.62 84.4218C118.59 86.0569 119.384 87.7899 119.99 89.5918H121.11C121.716 87.7899 122.51 86.0569 123.48 84.4218C123.933 86.4218 124.37 88.3985 124.79 90.3518H126.45C125.63 87.3518 125.02 84.2618 123.89 81.2118C122.516 83.0837 121.393 85.1278 120.55 87.2918C119.746 85.11 118.62 83.0607 117.21 81.2118C116.08 84.2118 115.47 87.3018 114.65 90.3518Z" fill="#010101"/>
<path fill-rule="evenodd" clip-rule="evenodd" d="M133.49 33.4018C136.716 36.045 139.14 39.5359 140.49 43.4818C140.499 43.5938 140.47 43.7055 140.408 43.7996C140.347 43.8936 140.256 43.9647 140.15 44.0018L136.48 44.1218L116.26 44.2718H96.7001L90.3601 44.1818C90.2761 44.1523 90.2028 44.0985 90.1494 44.0273C90.096 43.9561 90.0649 43.8707 90.0601 43.7818C90.5079 42.152 91.2098 40.603 92.1401 39.1918C98.1401 29.7918 109.14 25.6218 120.32 27.4018C125.174 28.1661 129.728 30.2406 133.49 33.4018ZM140.29 56.0418C140.35 56.0575 140.405 56.0855 140.453 56.1239C140.501 56.1624 140.541 56.2105 140.569 56.2652C140.597 56.3198 140.614 56.3798 140.617 56.4413C140.621 56.5027 140.612 56.5642 140.59 56.6218C137.59 66.3018 127.64 72.5118 117.84 73.2218C107.24 73.9518 97.0101 69.3918 91.7101 60.4518C91.0424 59.2158 90.5094 57.9116 90.1201 56.5618C90.0982 56.4652 90.114 56.3639 90.1641 56.2785C90.2143 56.193 90.2951 56.1299 90.3901 56.1018L91.2501 55.9718L106.56 55.9118H136.73L140.29 56.0418ZM140.99 53.1018C141.6 53.5618 141.11 54.4118 141.05 55.1018C140.93 55.2218 140.93 55.4318 140.69 55.4318L136.85 55.3018L123.52 54.5418L114.79 54.2018L100.79 54.8418L92.3001 55.3918C91.4639 55.4677 90.6217 55.4475 89.7901 55.3318C89.4832 54.7586 89.3445 54.1104 89.3901 53.4618C89.9101 53.0018 90.6501 53.3418 91.2601 53.1618L110.8 53.6818H120.72L133.65 53.2818C136.07 53.1618 138.65 53.1018 141 53.1018H140.99ZM141.57 50.5818C141.646 51.1545 141.625 51.7358 141.51 52.3018C141.14 52.7618 140.59 52.4818 140.13 52.5418L130.39 52.0918L120.85 51.6918L109.21 51.7518L101.21 52.0218L90.6201 52.6118C90.1801 52.6833 89.73 52.6595 89.3001 52.5418C89.047 51.9419 88.9841 51.2786 89.1201 50.6418L89.4201 50.4618H91.8501L107.5 51.0418L117 51.1018L124.29 50.9818L140.29 50.3118C140.72 50.3718 141.29 50.1218 141.6 50.5818H141.57ZM141.39 47.7418C141.51 48.2918 141.85 49.3318 141.21 49.7418H137.78L124.48 49.1518H112.57L104.91 49.3118L90.1801 49.8918C89.7801 49.8318 89.2601 50.0418 89.0501 49.5818C88.9648 49.0351 88.9648 48.4785 89.0501 47.9318C89.4101 47.3818 90.0501 47.7818 90.4901 47.6518L106.93 48.5118C111.47 48.6318 116.27 48.5718 120.69 48.5718L130.18 48.1118L140.04 47.5318C140.44 47.5318 141.04 47.3218 141.36 47.7818L141.39 47.7418ZM140.85 44.8018C141.216 45.4003 141.334 46.1176 141.18 46.8018L140.85 46.9118H135.4L121.95 46.6018L112.27 46.5418L102.87 46.7918L91.3501 47.0618L89.6401 47.0018C88.9001 46.6618 89.4801 45.8118 89.5201 45.2218C89.6401 45.0718 89.7601 44.8318 89.9701 44.8318L93.8501 44.9118L105.31 45.5518L115.72 46.0118L134.07 45.0118C136.24 44.8318 138.42 44.6718 140.59 44.6718L140.81 44.8318L140.85 44.8018Z" fill="#0D88CA"/>
</svg>
