<svg width="138" height="83" viewBox="0 0 138 83" fill="none" xmlns="http://www.w3.org/2000/svg">
<path d="M28.9202 56.7583L32.6383 59.302C47.9765 69.7965 68.8815 66.1787 79.801 51.1397L81.3245 49.0416" stroke="#0500FF" stroke-width="6.5" stroke-linecap="round"/>
<path d="M34.156 53.7782C35.9751 55.2035 30.6878 53.6 28.5049 56.3858C26.3216 59.1712 26.6673 62.9466 25.4187 61.9672C24.1568 60.5814 23.6629 57.4211 25.8458 54.6357C28.0287 51.85 32.0826 52.4167 34.156 53.7782Z" fill="#0500FF"/>
<path d="M15.4992 1.91078C15.067 2.7841 14.7275 2.92382 12.5665 3.30795C10.0352 3.76212 8.15225 4.35599 3.86155 6.13729C0.681712 7.46443 0.0335944 7.84891 0.249863 8.30273C0.558475 8.82658 2.13277 8.65185 3.86155 7.88358C6.97925 6.48676 9.81924 5.43871 11.3626 5.12427C12.227 4.94988 13.3691 4.70511 13.9558 4.5654C14.882 4.35599 14.9743 4.39067 14.8511 4.98455C14.7584 5.36903 14.1717 7.53411 13.5545 9.83961C11.27 18.1872 7.84364 33.5557 9.54152 27.6526C10.5291 24.2997 10.2514 26.6399 9.07809 31.8441C8.39907 34.7084 7.84364 36.6991 7.81275 36.21C7.68916 34.5684 7.25697 37.223 7.22607 39.9126C7.19518 41.4495 7.04104 42.5322 6.82477 42.7766C6.60885 42.9514 5.00365 43.5799 3.24398 44.1388C1.48431 44.6977 0.033594 45.3262 0.00269844 45.5009C-0.0899881 45.9898 2.22546 46.0948 3.79976 45.6407C5.34316 45.1868 8.09046 44.0691 9.51062 43.3355C10.0352 43.0907 11.1467 42.5322 11.9802 42.1131C13.8631 41.1701 13.1223 40.7856 11.0231 41.5889C9.81923 42.043 9.60297 42.043 9.44883 41.6239C9.35614 41.3445 9.38704 40.8556 9.47939 40.5412C9.60297 40.2267 9.88068 38.7599 10.1587 37.2927C10.4365 35.8258 10.9922 33.3109 11.4244 31.6694C11.8566 30.0278 12.2579 28.1068 12.3197 27.3385C12.3812 26.6049 12.906 24.8236 13.5236 23.3914C14.7275 20.4577 15.5301 17.2792 16.734 10.3635C17.1967 7.77887 17.7525 5.26398 17.9688 4.84483C18.586 3.55237 20.2221 2.99385 23.5252 2.92382C27.9704 2.81911 30.6871 3.16858 31.1807 3.93685C31.5511 4.53073 31.582 4.53073 31.582 3.76212C31.582 3.20325 31.2734 2.81911 30.4399 2.39997C29.452 1.91079 28.2481 1.80609 23.3401 1.80609C19.08 1.80609 17.2894 1.66637 17.0117 1.35226C16.4254 0.688696 16.0241 0.863083 15.4992 1.91078ZM11.7021 20.7021C10.8687 23.7409 10.4674 24.4745 10.7763 22.4834C11.0849 20.6324 12.2579 16.8601 12.3812 17.3143C12.443 17.5587 12.1343 19.0605 11.7021 20.7021Z" fill="#0500FF"/>
<path d="M88.5177 2.17686C88.3945 2.35022 88.3636 2.83596 88.3945 3.28704C88.4869 4.08517 87.9009 6.61792 87.3458 7.9708C87.1607 8.42187 87.0063 9.32402 87.0063 9.94845C87.0063 10.6076 86.8216 11.2323 86.6053 11.3017C86.3894 11.4054 86.2044 11.6484 86.2044 11.8564C86.2044 12.0648 86.3894 12.1341 86.6053 11.9955C86.8525 11.7871 86.8525 11.8914 86.5748 12.3078C86.3279 12.6199 86.2662 13.071 86.3894 13.279C86.513 13.522 86.3588 13.9038 86.0193 14.1811C85.526 14.5975 85.4951 14.7016 85.8961 14.9793C86.2662 15.222 86.2661 15.3953 85.9579 15.7424C85.6802 16.0544 85.5878 16.0544 85.5569 15.6384C85.5569 15.3953 85.4025 15.5344 85.2487 15.9854C85.0942 16.4362 85.0324 17.1303 85.156 17.512C85.2487 17.8938 85.2174 18.2751 85.0324 18.4138C84.8477 18.5529 84.9092 18.7956 85.156 19.0733C85.4951 19.4203 85.5878 19.4203 85.5878 19.0386C85.5878 18.7609 85.8034 17.9974 86.0506 17.373L86.5439 16.1935L86.3588 17.2343C85.9888 19.3506 85.5569 20.1835 85.0015 19.8364C84.5391 19.5934 84.385 19.8364 83.8913 21.4323C83.5213 22.6812 83.2435 23.1669 83.0585 22.8896C82.7193 22.2305 82.7502 22.8896 83.1203 23.6877C83.398 24.2078 83.3362 24.4161 82.9662 24.5548C82.7193 24.6588 82.5034 25.0406 82.5034 25.353C82.5034 26.0467 77.6611 31.6327 77.0751 31.6327C76.8901 31.6327 76.3659 32.2571 75.9031 33.0205C75.4407 33.8183 74.9471 34.3388 74.7929 34.2347C74.6079 34.0961 74.4843 34.3388 74.4843 34.7205C74.4843 35.1369 74.3611 35.4493 74.1761 35.4493C74.0219 35.4493 73.8678 35.3102 73.8678 35.1022C73.8678 34.9285 73.6519 34.8592 73.3741 34.9982C72.9732 35.1712 72.9114 34.9982 73.035 34.1307C73.22 32.9162 74.7002 29.447 75.4098 28.5795C75.6872 28.2671 76.2426 27.3303 76.6436 26.4978C77.291 25.2143 77.4455 25.0753 77.7538 25.5263C77.9388 25.8384 78.0315 26.4978 77.9388 26.9836C77.8155 27.816 77.877 27.8857 78.5248 27.6427C79.9127 27.1919 80.4369 26.2894 80.2213 24.8672C79.8818 22.9589 79.0799 22.2651 77.2296 22.2651C75.8108 22.2651 75.5331 22.4038 74.577 23.5487C73.991 24.2424 73.1273 25.6653 72.6955 26.7405C72.0789 28.1978 71.493 28.9609 70.3515 29.8283C69.5187 30.4528 67.7299 32.1184 66.342 33.541C63.5971 36.4204 61.9009 37.5306 60.2353 37.5306C59.2175 37.5306 59.0942 37.4266 58.9092 36.4551C58.6624 35.2062 58.9398 32.6041 59.5257 31.0776C59.8652 30.1407 60.1121 29.9674 61.3458 29.8283C63.628 29.5163 66.1264 27.9204 67.3598 25.9427C68.7171 23.7224 68.9327 21.7794 68.0076 20.4608C67.1133 19.1426 65.355 18.5875 63.8748 19.1426C62.4869 19.663 59.6802 23.1323 58.5697 25.7347C58.1073 26.7755 57.4595 28.2671 57.1204 29.0306C56.2567 30.9039 56.0102 35.4493 56.6885 36.5941C57.3668 37.739 59.0324 38.5718 60.7286 38.5718C62.2401 38.5718 64.5535 37.739 65.1086 36.9759C65.2936 36.6981 65.5404 36.5941 65.6328 36.6981C65.7254 36.8022 65.9719 36.5595 66.1569 36.1084C66.5579 35.3102 66.6197 35.3103 65.0773 36.004C63.9671 36.5248 64.7691 35.4146 66.2496 34.3734C67.1133 33.7837 68.5936 32.5695 69.4882 31.702C70.3515 30.8692 71.092 30.2794 71.092 30.4528C71.092 30.5918 71.5853 29.7937 72.2022 28.6488C73.6828 25.8734 74.2069 25.3876 72.9423 27.9897C71.4929 30.9039 71.4621 30.9735 70.9684 32.3958C70.7216 33.1246 70.3824 33.7143 70.1974 33.7143C70.0433 33.7143 69.8273 34.1654 69.7041 34.7552C69.5496 35.5183 69.6732 36.0734 70.1665 36.8368C70.7216 37.739 71.0302 37.8777 72.2022 37.8777C74.0528 37.8777 74.978 37.2532 76.6436 34.9982C77.4146 33.9223 78.5557 32.7428 79.2034 32.3264C79.8203 31.9104 80.3445 31.4593 80.3445 31.3203C80.3445 31.1816 80.7455 30.6265 81.2082 30.0367C81.7015 29.4816 82.1952 28.7879 82.2878 28.5101C82.3802 28.1631 82.4729 28.2671 82.4729 28.7879C82.5034 29.2733 82.6576 29.551 82.9044 29.447C83.0894 29.3773 83.2435 28.9262 83.1821 28.4408C83.1203 27.9204 83.2435 27.4346 83.4286 27.296C83.5831 27.1919 83.9531 26.4978 84.1999 25.8384C84.4773 25.1446 84.755 24.6935 84.8783 24.7979C85.0636 25.0406 84.57 27.955 84.0146 30.0367C83.8608 30.5571 83.8295 31.1469 83.9222 31.3549C84.0146 31.5286 83.9531 31.8407 83.799 32.0837C83.6445 32.3264 83.4286 34.1307 83.3362 36.1431C83.2435 38.1554 83.1512 39.8553 83.1203 39.9593C83.1203 40.0633 82.9971 39.9247 82.8426 39.6473C82.6267 39.2656 82.5343 39.3349 82.3802 39.89C82.2566 40.2714 82.1952 40.7225 82.2257 40.8615C82.3802 41.9023 82.1643 43.0818 81.8248 42.8738C81.5783 42.7001 81.5474 42.9778 81.6706 43.9493C81.9174 45.5799 82.0407 45.7533 83.4598 46.031L84.6009 46.2737V41.6246C84.6314 39.0919 84.6932 36.6635 84.7859 36.2471C84.8783 35.796 85.0942 33.541 85.3101 31.2162C85.4951 28.8572 85.8346 26.5325 86.0811 26.0121C86.3279 25.4916 86.4206 24.8325 86.3279 24.5548C86.2356 24.2771 86.3588 23.6877 86.6366 23.2366C86.9139 22.8202 87.1299 22.1264 87.1299 21.71C87.1299 20.8426 88.5486 14.4242 88.9802 13.418C89.1346 13.0363 89.5047 11.7871 89.7824 10.6422C90.3375 8.45654 90.954 6.58325 91.5095 5.47273C91.6636 5.09099 91.8795 4.36255 91.9722 3.84213C92.0646 3.07901 91.9413 2.83596 91.3862 2.62793C90.9853 2.4889 90.5843 2.38489 90.4607 2.41956C90.3375 2.45423 89.8747 2.31554 89.4738 2.14218C88.9802 1.93381 88.6413 1.93382 88.5177 2.17686ZM88.1782 10.6422C88.055 10.9199 87.9318 11.1626 87.87 11.1626C87.8085 11.1626 87.7467 10.9199 87.7467 10.6422C87.7467 10.3649 87.87 10.1218 88.055 10.1218C88.2095 10.1218 88.2709 10.3649 88.1782 10.6422ZM87.2534 14.5282C86.9757 15.8117 86.513 16.3668 86.513 15.4303C86.513 14.4589 86.8216 13.5914 87.1608 13.5914C87.3149 13.5914 87.3458 14.0078 87.2534 14.5282ZM66.4652 20.8426C66.6197 21.2243 66.7738 21.9527 66.7738 22.4732C66.7738 23.41 66.8047 23.41 67.2366 22.7509C67.7608 21.9874 67.8534 22.3345 67.3598 23.3406C67.2057 23.7224 66.9283 23.9304 66.7429 23.8264C66.5888 23.6877 66.4652 23.8264 66.4652 24.1388C66.4652 25.2489 61.2531 29.3426 60.6672 28.7182C60.4203 28.4408 61.099 26.9142 62.7025 24.1734C65.0468 20.1141 65.7869 19.455 66.4652 20.8426ZM83.0276 41.4166C82.9353 41.6596 82.8738 41.4859 82.8738 41.0002C82.8738 40.5144 82.9353 40.3411 83.0276 40.5491C83.0894 40.7921 83.0894 41.2085 83.0276 41.4166ZM82.5034 44.192C82.5034 44.7475 82.4111 44.8515 82.1643 44.5738C81.9792 44.3657 81.9174 44.0187 82.0101 43.8103C82.3493 43.2209 82.5034 43.3592 82.5034 44.192Z" fill="#120D0D"/>
<path d="M123.232 3.70032C122.335 4.22314 120.726 7.49772 120.726 8.78675C120.726 9.58798 120.788 9.55331 121.344 8.29895L121.963 6.90556L121.778 8.40365C121.685 9.23954 121.252 10.877 120.819 12.0267C120.417 13.1763 120.138 14.2213 120.231 14.3256C120.354 14.4303 120.417 14.3606 120.417 14.1863C120.417 13.9775 120.633 13.5248 120.881 13.1413C121.128 12.7929 120.912 13.5941 120.417 14.9878C119.859 16.4509 119.581 17.7396 119.705 18.088C119.828 18.4715 119.798 18.6105 119.581 18.4715C119.179 18.1927 118.807 19.6558 119.055 20.5617C119.179 21.0145 119.148 21.0842 118.931 20.7358C118.715 20.3873 118.591 20.5964 118.436 21.537C118.312 22.2339 118.127 23.0697 118.034 23.3485C117.91 23.7316 117.972 23.8363 118.189 23.6619C118.405 23.5225 118.22 23.9753 117.786 24.7072C117.353 25.4041 117.013 26.484 117.013 27.0759C117.013 27.6684 116.858 28.783 116.704 29.5492C116.549 30.3158 116.363 31.8836 116.239 33.0332C116.146 34.1829 115.992 35.4369 115.93 35.82C115.868 36.2031 115.806 36.9697 115.775 37.5618C115.744 38.4677 115.682 38.5028 115.466 37.9102C115.28 37.3878 115.187 37.3528 115.126 37.7362C115.095 38.0146 114.971 37.4575 114.847 36.5169C114.63 34.8794 114.63 34.9141 114.692 37.109C114.723 38.6418 114.971 39.8261 115.373 40.5927C116.642 43.0313 120.385 43.1704 121.654 40.7671C122.521 39.1993 122.427 38.8508 121.437 39.8611C119.55 41.777 119.55 41.777 118.56 40.697C117.91 40.0005 117.632 39.269 117.477 38.0146C117.353 37.0393 117.167 36.4472 117.013 36.6562C116.889 36.9 116.858 37.4921 116.92 38.0146C117.044 38.7465 116.982 38.8508 116.734 38.4327C116.208 37.5965 116.332 36.0987 116.92 35.855C117.353 35.6459 117.353 35.5413 117.044 35.3322C116.827 35.1581 116.704 34.6357 116.796 34.0435L116.92 33.0332L117.167 33.9041C117.384 34.6007 117.57 34.0435 118.158 30.943C118.591 28.7133 118.807 26.6231 118.715 25.9612C118.591 25.195 118.622 24.8466 118.838 24.986C119.117 25.195 119.705 22.9654 119.55 22.3035C119.519 22.1642 119.612 22.0595 119.767 22.0595C119.921 22.0595 120.138 21.537 120.262 20.9102C120.788 17.7746 122.923 10.1455 124.067 7.32368C124.903 5.26844 125.089 4.4322 124.872 4.01408C124.439 3.24753 124.098 3.17818 123.232 3.70032ZM117.941 30.2461C117.941 30.943 117.601 31.8139 117.322 31.8139C117.198 31.8139 117.106 31.2914 117.136 30.6292C117.167 29.863 117.291 29.5146 117.57 29.6193C117.755 29.7236 117.941 30.0024 117.941 30.2461Z" fill="black"/>
<path d="M104.114 9.21176C103.744 9.35147 103.343 9.70162 103.158 9.94638C102.633 10.7514 101.398 16.8055 101.584 17.6806C101.676 18.1354 101.646 19.0451 101.491 19.71C101.214 20.9002 101.214 20.8652 101.337 19.3602C101.491 17.2957 101.059 18.2054 100.565 20.9352C99.763 25.5898 99.5776 26.0096 97.2011 28.9492C95.9666 30.5242 94.2073 32.8338 93.2814 34.1287C90.6272 37.8728 90.4112 37.8032 91.1521 33.4987C91.6457 30.5939 92.2011 28.599 93.899 23.4549C94.6704 21.1103 94.6704 21.0749 94.0837 20.4103C92.8492 19.0104 92.4788 19.4303 91.0899 23.8397C89.8864 27.7243 89.4236 29.3694 89.2691 30.5592C89.2383 30.839 88.9914 32.0988 88.7137 33.3587C88.0038 36.6133 88.0656 38.0829 88.8987 38.7479C89.8249 39.4828 90.9358 39.4478 92.1397 38.6432C93.0961 37.9432 96.337 32.9035 96.337 32.0638C96.337 31.8187 97.1702 30.7339 98.1887 29.6141C99.7012 27.9691 100.01 27.7594 99.8248 28.459C98.5591 33.6738 98.0963 36.2632 97.7874 39.3428C97.6024 41.3376 97.3864 43.0877 97.2937 43.1924C97.1087 43.5425 98.4355 44.5573 99.084 44.5573C99.763 44.5573 101.769 41.7928 102.263 40.1128C102.51 39.3778 102.88 38.8182 103.096 38.8529C103.312 38.8879 103.868 39.028 104.3 39.1681C105.411 39.4478 107.479 38.7479 108.59 37.6631C109.948 36.3682 111.707 33.6034 112.88 30.839C114.115 28.0395 114.331 24.7498 113.374 23.56C112.294 22.1947 108.158 23.2098 106.738 25.2046C105.226 27.3042 103.343 30.3491 103.343 30.6639C103.343 30.909 103.652 30.6289 104.022 30.104C104.516 29.334 104.732 29.2293 104.917 29.5791C105.102 29.8942 105.164 29.7542 105.133 29.1593C105.072 28.5293 105.195 28.2842 105.627 28.2842C105.966 28.2842 106.306 28.0395 106.368 27.7594C106.491 27.3042 106.46 27.3042 106.028 27.6893C105.627 28.0745 105.566 28.0395 105.72 27.4442C105.874 26.7446 106.676 25.7996 107.016 25.8696C107.108 25.9046 107.17 25.7645 107.139 25.5194C107.078 25.3093 107.232 25.4147 107.417 25.7295C107.788 26.2894 107.942 26.2194 109.115 24.8899C110.72 23.1051 111.059 23.3149 111.182 26.1844C111.337 28.8441 110.75 30.944 109.053 33.9186C107.51 36.6133 107.324 37.3133 108.374 36.2982L109.053 35.6333L108.466 36.4383C108.127 36.8581 107.818 37.1382 107.726 37.0332C107.633 36.9281 107.108 37.2433 106.553 37.7331C105.133 38.958 104.825 38.8179 106.121 37.5581C106.707 36.9982 107.016 36.5433 106.769 36.5083C106.553 36.5083 105.966 36.8931 105.442 37.383C104.393 38.3631 103.713 38.5031 103.467 37.7331C103.343 37.4534 103.065 37.2083 102.819 37.2083C102.479 37.2083 102.417 37.0332 102.571 36.5783C102.695 36.2632 102.88 35.5982 102.973 35.1084C103.034 34.6185 103.25 34.0236 103.436 33.7785C103.621 33.4987 103.621 33.3587 103.374 33.3587C103.189 33.3587 102.942 33.6388 102.849 33.9536C102.325 35.7383 101.707 36.9281 101.522 36.5433C101.368 36.2982 101.059 36.6834 100.72 37.5581C100.411 38.3631 100.041 39.063 99.9171 39.1681C99.6703 39.3428 99.7012 38.8879 100.411 34.5835C100.689 32.8338 100.997 30.944 101.09 30.3141C101.182 29.6842 101.43 28.9842 101.676 28.7741C101.923 28.5644 102.109 27.794 102.109 27.0944C102.109 26.3945 102.232 25.6595 102.386 25.4497C102.54 25.2747 102.911 23.8748 103.189 22.3698C103.467 20.8302 103.713 19.5003 103.775 19.3953C103.837 19.2906 103.991 18.3105 104.114 17.2604C104.238 16.2106 104.547 14.8111 104.794 14.2158C105.041 13.5859 105.349 12.1163 105.472 10.9611C105.72 8.72154 105.566 8.51146 104.114 9.21176ZM100.936 23.3849C100.874 24.0498 100.658 24.7148 100.503 24.8195C100.288 24.9595 100.257 24.6097 100.411 23.8748C100.812 21.8449 101.121 21.5301 100.936 23.3849ZM108.189 24.9595C108.158 25.3797 108.034 25.5194 107.88 25.3447C107.725 25.1696 107.695 24.8545 107.788 24.6447C108.127 24.0849 108.25 24.1896 108.189 24.9595ZM110.781 32.4136C110.472 32.7287 110.441 32.6937 110.627 32.2039C110.72 31.8541 110.905 31.679 110.997 31.7837C111.09 31.8887 110.997 32.1688 110.781 32.4136ZM95.0408 33.6738C93.5286 35.7033 92.8492 36.4032 92.8492 35.8784C92.8492 35.4935 95.8121 31.9587 96.1211 31.9587C96.2134 31.9587 95.7507 32.7287 95.0408 33.6738Z" fill="black"/>
<path d="M36.7808 12.5801C35.8209 14.5275 35.6043 16.0925 36.3781 15.362C36.9974 14.8056 36.9665 15.362 36.3781 17.2751C36.1302 18.04 35.6352 19.9878 35.2947 21.6221C34.9229 23.2569 34.304 25.7611 33.8704 27.1868C33.4681 28.6128 32.8179 31.1864 32.4465 32.8908L31.7345 36.0208L29.7839 37.5512C28.7005 38.3857 27.7098 38.9768 27.6168 38.8378C27.4932 38.6988 27.4311 37.2378 27.4311 35.6034C27.4623 33.3429 27.7098 31.8125 28.3291 29.6213C28.7932 27.987 29.3507 25.7958 29.5673 24.7522C29.8148 23.709 30.1245 22.179 30.3102 21.3441C30.4959 20.5092 30.5889 19.7094 30.5268 19.5703C30.4341 19.4313 29.7839 19.2923 29.0411 19.2573C27.7407 19.2226 27.6789 19.2923 25.8832 21.8655C24.8928 23.2919 23.2519 25.7958 22.2303 27.4302C21.2087 29.0302 20.311 30.2822 20.2489 30.2128C20.1871 30.1431 20.4346 28.5781 20.7752 26.7693C21.1466 24.9263 21.3635 23.1872 21.2705 22.9091C21.023 22.1789 20.0323 21.6221 19.5987 21.9005C19.1964 22.179 17.4628 28.6825 17.215 30.8386C17.091 31.9515 17.1532 31.8472 17.4628 30.3865C17.7103 29.3433 17.9891 28.4044 18.1439 28.2997C18.2675 28.1607 18.2366 28.5084 18.1126 29.0999C17.9891 29.656 17.6485 31.4994 17.3698 33.1342C16.7817 36.3686 16.5339 37.0641 16.0694 36.751C15.9146 36.612 15.791 36.8207 15.791 37.1684C15.791 37.5162 16.2242 38.1073 16.7508 38.4554C17.6794 39.0812 17.7103 39.0812 18.3914 38.3507C18.7941 37.9336 20.0323 35.6034 21.1778 33.1688C22.3542 30.6299 24.0878 27.6042 25.233 26.0045C27.1836 23.3612 27.2454 23.2919 27.2454 24.3698C27.2454 24.9609 27.0288 26.0392 26.7809 26.7347C26.3786 27.7782 26.1002 29.8301 26.0071 31.9866C26.0071 32.23 25.8832 32.369 25.7284 32.2299C25.5736 32.1252 25.3261 32.2299 25.2021 32.4387C25.0786 32.6821 25.1095 32.7514 25.2952 32.6474C25.7593 32.334 25.9453 33.0995 25.6666 34.1427L25.4496 35.0119L25.4187 34.1774C25.357 32.7514 25.1403 33.5166 24.9546 35.6381C24.7068 38.3857 25.2639 39.8464 26.75 40.4028C28.0813 40.89 29.4743 40.6116 30.2172 39.6723C31.0225 38.6641 31.3318 38.8725 31.0843 40.2985C30.9604 41.0287 30.8368 41.8982 30.7747 42.2113C30.6198 43.2895 31.177 42.8721 31.3936 41.7942C31.4866 41.2027 31.7345 40.7506 31.9511 40.7506C32.4156 40.7506 32.7558 39.9157 33.9322 35.7078C34.4279 33.9687 34.985 32.6124 35.1395 32.6474C36.1611 32.9601 41.7028 35.2903 43.4985 36.1945C44.6749 36.8207 45.944 37.3425 46.2849 37.4118C46.6872 37.4812 46.9038 37.7946 46.9038 38.2813C46.9038 38.7335 47.2444 39.2899 47.7397 39.603C48.8231 40.3678 49.1946 39.9854 50.1235 37.3771C50.5258 36.2642 51.176 34.5251 51.5783 33.5166C51.981 32.508 52.3215 31.5345 52.3215 31.3604C52.3215 30.943 54.3026 27.0477 55.3551 25.3437C55.8199 24.6482 56.6864 23.7787 57.2748 23.4306C57.8628 23.1178 58.3582 22.596 58.3582 22.3176C58.3582 21.5875 56.0983 21.7615 55.1076 22.596C54.086 23.4306 51.981 26.9087 52.1667 27.4302C52.2285 27.6735 52.1667 27.8823 51.981 27.8823C51.8262 27.8823 51.5474 28.2997 51.3617 28.7865C50.8046 30.4562 50.6806 29.3433 51.176 27.1174C51.4548 25.9001 51.888 23.9177 52.1667 22.6311C52.8166 19.8137 52.7239 18.7008 51.7949 18.5618C51.3617 18.4921 51.0833 18.6661 50.9594 19.0836C50.8973 19.4313 50.3092 21.5528 49.6899 23.7787C48.9471 26.4913 48.5756 28.6478 48.5135 30.2475C48.4826 31.6038 48.3587 32.508 48.2348 32.2993C48.049 31.9515 47.6467 33.9687 47.3992 36.6817C47.3683 36.8207 46.8417 36.5076 46.2228 35.9511C44.6749 34.5948 40.4336 32.1252 39.1954 31.8819C38.6688 31.7428 37.9259 31.3951 37.5233 31.0824L36.8425 30.4909L39.0406 28.4044C40.2479 27.2565 41.8267 25.9001 42.5386 25.3437C46.3776 22.457 48.9162 18.8402 48.9162 16.2316C48.9162 15.3274 48.7305 15.0493 47.8324 14.5622C46.7799 14.0057 46.749 14.0057 46.749 14.6665C46.749 16.0228 45.4796 18.0053 42.3529 21.5181C40.6502 23.5006 39.1024 25.1003 38.9784 25.1003C38.8545 25.1003 38.607 25.309 38.4831 25.5524C38.2047 26.0392 36.5329 27.2915 36.5329 27.0131C36.5329 26.9087 36.8734 25.448 37.3067 23.7787C39.9692 13.1015 40.1549 11.7452 38.8236 11.1887C37.6784 10.7016 37.7093 10.7016 36.7808 12.5801Z" fill="#0500FF"/>
<path d="M119.485 11.899C119.234 12.3899 118.294 16.9511 118.45 17.0915C118.513 17.1615 118.858 16.004 119.265 14.5302C119.892 12.1444 119.986 11.0215 119.485 11.899Z" fill="black"/>
<path d="M93.8089 15.8739C93.5236 16.89 93.8724 17.304 95.2355 17.4169C96.0598 17.4921 96.345 17.3792 96.4401 16.8522C96.7254 15.1962 94.2212 14.2553 93.8089 15.8739Z" fill="black"/>
<path d="M118.098 18.1759C118.098 18.4811 118.226 18.5642 118.355 18.3424C118.484 18.1484 118.441 17.8989 118.312 17.8155C118.183 17.7046 118.055 17.8711 118.098 18.1759Z" fill="black"/>
<path d="M128.377 19.2799C127.2 19.8305 124.135 23.8566 123.268 25.9901C122.897 26.8504 122.34 28.2269 121.968 29.0872C121.225 30.9107 120.916 35.1437 121.442 36.2793C121.968 37.3459 124.011 38.3782 125.59 38.3782C127.138 38.3782 129.398 37.5869 130.11 36.7953C130.389 36.52 130.885 36.0383 131.225 35.763L131.844 35.2467L131.225 35.3844C130.885 35.4877 130.327 35.6597 130.017 35.8317C129.522 36.0383 129.46 35.9693 129.646 35.4187C129.832 34.8681 129.801 34.8681 129.151 35.522C128.191 36.5543 126.364 37.3459 125.064 37.3459C124.135 37.3459 123.98 37.2083 123.795 36.3137C123.547 35.1437 123.857 32.4249 124.414 30.9454C124.755 29.9818 124.971 29.8441 126.395 29.6722C128.81 29.3625 130.977 27.883 132.37 25.6458C134.197 22.721 133.857 20.3465 131.504 19.2453C130.234 18.6606 129.646 18.6606 128.377 19.2799ZM131.38 20.7938C131.535 21.1724 131.69 21.8951 131.69 22.4114C131.69 23.3403 131.72 23.3403 132.154 22.6867C132.68 21.9297 132.773 22.2737 132.278 23.2716C132.123 23.6499 131.844 23.8566 131.658 23.7533C131.503 23.6156 131.38 23.7533 131.38 24.0629C131.38 25.1298 126.178 29.2592 125.621 28.6399C125.343 28.3302 126.24 26.3344 127.882 23.6499C130.172 19.8649 130.699 19.4519 131.38 20.7938Z" fill="black"/>
<path d="M83.4265 27.9852C83.4265 28.4428 83.5549 28.5678 83.6833 28.2348C83.8124 27.9437 83.7694 27.5695 83.6407 27.4445C83.512 27.2784 83.3833 27.528 83.4265 27.9852Z" fill="black"/>
<path d="M115.504 29.1016C115.332 29.746 115.289 30.3903 115.418 30.4662C115.504 30.5801 115.718 30.0872 115.889 29.4425C116.232 27.8503 115.889 27.5469 115.504 29.1016Z" fill="black"/>
<path d="M123.99 2.18989C123.151 2.83938 121.659 4.31962 120.726 5.43838C119.234 7.24302 119.141 7.42359 120.042 6.84619C121.597 5.79917 124.581 2.91181 125.172 1.8648C125.483 1.35948 125.669 0.92626 125.638 0.962305C125.576 0.962305 124.861 1.50401 123.99 2.18989Z" fill="black"/>
<path d="M104.824 31.6165C104.754 31.6999 104.701 31.9227 104.701 32.0895C104.701 32.2564 104.789 32.2286 104.912 32.0339C105.017 31.8671 105.069 31.6443 105.034 31.5612C104.982 31.4775 104.876 31.5053 104.824 31.6165Z" fill="black"/>
<path d="M102.566 32.7737C101.94 34.1712 101.408 35.8756 101.69 35.603C101.971 35.2961 103.473 31.5125 103.317 31.5125C103.254 31.5125 102.91 32.0919 102.566 32.7737Z" fill="black"/>
<path d="M97.2583 35.901C97.1928 36.2951 97.1492 36.8715 97.1492 37.2052C97.1711 37.5388 97.2583 37.2659 97.3675 36.6288C97.5858 35.3549 97.4983 34.7483 97.2583 35.901Z" fill="black"/>
<path d="M96.8062 40.6167C96.8062 41.3747 96.9115 41.6939 97.0701 41.2951C97.1759 40.936 97.1759 40.2978 97.0701 39.8986C96.9115 39.5395 96.8062 39.8587 96.8062 40.6167Z" fill="black"/>
<path d="M46.9736 15.0345C46.8977 14.8217 47.0968 14.6164 47.2798 14.7187L47.6897 14.9484L48.1562 15.21L48.5359 15.4657C48.6698 15.556 48.7844 15.6782 48.8713 15.8241C48.9386 15.9374 48.988 16.0623 49.0172 16.1942L49.0409 16.3009C49.0731 16.4454 49.0896 16.5937 49.0896 16.7424V16.8083C49.0896 16.9635 49.0759 17.1183 49.0488 17.2703L48.9729 17.6957L48.8562 18.088L48.8239 18.2336C48.768 18.4839 48.6794 18.7238 48.5609 18.9452L48.5373 18.9892C48.4391 19.1725 48.3213 19.3417 48.1864 19.4931L45.0066 23.0591C44.2466 23.7248 43.2301 22.7121 43.7303 21.7876L45.5898 18.35L46.5342 16.7019C46.6042 16.5797 46.6653 16.4513 46.7165 16.3177L46.8946 15.8505C46.9575 15.6871 46.9897 15.5107 46.9897 15.3329V15.1276C46.9897 15.0956 46.9843 15.0641 46.9736 15.0345Z" fill="#0500FF"/>
<path d="M46 12.9752H48.6144L49.0896 15.7214L47.0697 14.4139L47.6756 14.8062L47.0697 14.5447C46.9382 14.6167 46.885 14.7922 46.9506 14.9367L46 14.2831V12.9752Z" fill="white"/>
<path d="M46.3433 14.6916H47.0298V15.0349H46.3433V14.6916Z" fill="white"/>
<path d="M2.05969 78.5973H3.08645L4.31369 80.3686H4.36313L5.59037 78.5973H6.61678L4.79154 81.1073V82.601H3.88527V81.1073L2.05969 78.5973ZM11.4609 80.5989C11.4609 81.0304 11.3596 81.3998 11.1571 81.7074C10.9562 82.0136 10.6819 82.2488 10.3342 82.4115C9.98748 82.5745 9.59477 82.6559 9.15571 82.6559C8.71596 82.6559 8.3229 82.5745 7.97481 82.4115C7.62844 82.247 7.35415 82.0119 7.15162 81.7053C6.95079 81.3978 6.85022 81.0291 6.85022 80.5989C6.85022 80.1678 6.95079 79.7987 7.15162 79.4922C7.35415 79.1846 7.62844 78.9495 7.97481 78.7867C8.3229 78.6237 8.71596 78.5423 9.15571 78.5423C9.59477 78.5423 9.98748 78.6237 10.3342 78.7867C10.6819 78.9495 10.9562 79.1846 11.1571 79.4922C11.3596 79.7987 11.4609 80.1678 11.4609 80.5989ZM10.547 80.5989C10.547 80.2955 10.4873 80.039 10.3685 79.8307C10.2508 79.6209 10.0874 79.4627 9.87832 79.3556C9.66926 79.2474 9.42828 79.1932 9.15571 79.1932C8.8828 79.1932 8.64181 79.2474 8.43275 79.3556C8.22369 79.4627 8.0596 79.6209 7.94048 79.8307C7.82308 80.039 7.76369 80.2955 7.76369 80.5989C7.76369 80.9027 7.82308 81.1595 7.94048 81.3693C8.0596 81.578 8.22369 81.7362 8.43275 81.8444C8.64181 81.9515 8.8828 82.0047 9.15571 82.0047C9.42828 82.0047 9.66926 81.9515 9.87832 81.8444C10.0874 81.7362 10.2508 81.578 10.3685 81.3693C10.4873 81.1595 10.547 80.9027 10.547 80.5989ZM15.4835 78.5973H16.3925V81.2131C16.3925 81.4997 16.3073 81.7517 16.1374 81.9697C15.9692 82.187 15.7323 82.3572 15.4268 82.4801C15.1213 82.601 14.765 82.6617 14.3561 82.6617C13.9462 82.6617 13.5889 82.601 13.283 82.4801C12.9775 82.3572 12.741 82.187 12.5728 81.9697C12.4042 81.7517 12.3204 81.4997 12.3204 81.2131V78.5973H13.2291V81.1523C13.2291 81.3191 13.2751 81.4678 13.3664 81.5982C13.4595 81.7283 13.5902 81.8306 13.7585 81.9051C13.927 81.9779 14.1258 82.0146 14.3561 82.0146C14.5868 82.0146 14.7856 81.9779 14.9545 81.9051C15.1237 81.8306 15.2545 81.7283 15.3461 81.5982C15.4375 81.4678 15.4835 81.3191 15.4835 81.1523V78.5973ZM17.3801 82.601V78.5973H19.2616C19.6468 78.5973 19.9705 78.6501 20.2318 78.7576C20.4947 78.864 20.6931 79.014 20.827 79.2069C20.9626 79.3988 21.0302 79.622 21.0302 79.8777C21.0302 80.1345 20.9616 80.3573 20.8249 80.5464C20.6894 80.7339 20.4892 80.8791 20.2242 80.9824C19.9599 81.084 19.6351 81.1348 19.2496 81.1348H17.9094V80.5323H19.1267C19.3526 80.5323 19.5369 80.5076 19.6808 80.4582C19.8246 80.4074 19.9303 80.3336 19.999 80.2371C20.069 80.1396 20.1044 80.0198 20.1044 79.8777C20.1044 79.7356 20.069 79.6141 19.999 79.5138C19.929 79.4122 19.8219 79.3353 19.6784 79.2831C19.5345 79.2296 19.3492 79.2031 19.1219 79.2031H18.2888V82.601H17.3801ZM19.9722 80.7867L21.2142 82.601H20.1998L18.9801 80.7867H19.9722ZM24.4874 78.5973V82.601H23.5784V78.5973H24.4874ZM29.5952 78.5973V82.601H28.7867L26.4222 79.8736H26.3803V82.601H25.472V78.5973H26.2849L28.647 81.3264H28.6913V78.5973H29.5952ZM30.5852 82.601V78.5973H31.4942V80.4369H31.5553L33.5131 78.5973H34.6232L32.6826 80.394L34.64 82.601H33.5474L32.0503 80.8842L31.4942 81.4084V82.601H30.5852ZM35.2545 82.601V78.5973H37.1357C37.5216 78.5973 37.8449 78.6501 38.1058 78.7576C38.3691 78.864 38.5676 79.014 38.7018 79.2069C38.837 79.3988 38.905 79.622 38.905 79.8777C38.905 80.1345 38.8363 80.3573 38.699 80.5464C38.5634 80.7339 38.3637 80.8791 38.099 80.9824C37.8343 81.084 37.5092 81.1348 37.1237 81.1348H35.7839V80.5323H37.0012C37.2267 80.5323 37.4114 80.5076 37.5549 80.4582C37.6987 80.4074 37.8044 80.3336 37.8731 80.2371C37.9438 80.1396 37.9785 80.0198 37.9785 79.8777C37.9785 79.7356 37.9438 79.6141 37.8731 79.5138C37.8031 79.4122 37.6963 79.3353 37.5525 79.2831C37.4086 79.2296 37.2233 79.2031 36.9967 79.2031H36.1632V82.601H35.2545ZM37.8463 80.7867L39.0887 82.601H38.0743L36.8542 80.7867H37.8463ZM39.7416 82.601V78.5973H43.0048V79.2049H40.6506V80.292H42.8359V80.9003H40.6506V81.993H43.0244V82.601H39.7416ZM45.6327 82.601H43.9324V78.5973H45.667C46.1651 78.5973 46.5928 78.6772 46.9502 78.8375C47.31 78.9968 47.5856 79.2251 47.7785 79.5238C47.9711 79.8221 48.0676 80.1791 48.0676 80.5952C48.0676 81.0123 47.9708 81.3703 47.7761 81.6703C47.5832 81.97 47.3048 82.2004 46.9409 82.3607C46.5784 82.521 46.1421 82.601 45.6327 82.601ZM44.8407 81.9731H45.5884C45.9379 81.9731 46.2293 81.9223 46.4631 81.821C46.6965 81.718 46.8723 81.5649 46.9897 81.3614C47.1074 81.1571 47.1661 80.9014 47.1661 80.5952C47.1661 80.2886 47.1074 80.0349 46.9897 79.8327C46.8723 79.6292 46.6982 79.4778 46.4679 79.3772C46.2393 79.2752 45.9547 79.2244 45.6152 79.2244H44.8407V81.9731ZM49.8403 78.5973V82.601H48.9313V78.5973H49.8403ZM50.8245 82.601V78.5973H52.7455C53.108 78.5973 53.4094 78.6426 53.6494 78.7339C53.891 78.8238 54.0716 78.9471 54.1911 79.1036C54.3119 79.2598 54.372 79.4373 54.372 79.6353C54.372 79.7984 54.3325 79.9374 54.2546 80.0535C54.176 80.1681 54.0706 80.2615 53.9384 80.3332C53.8059 80.4046 53.6583 80.4561 53.4949 80.4877V80.5269C53.6727 80.5344 53.844 80.578 54.0071 80.6576C54.1722 80.7359 54.3068 80.8468 54.4111 80.9899C54.5158 81.1334 54.568 81.3064 54.568 81.51C54.568 81.7174 54.5052 81.9038 54.3795 82.0692C54.2536 82.2337 54.0641 82.3634 53.8111 82.4582C53.5581 82.5533 53.2392 82.601 52.8554 82.601H50.8245ZM51.7335 81.9951H52.7112C53.0407 81.9951 53.2786 81.9446 53.4238 81.8444C53.5708 81.7428 53.6446 81.6127 53.6446 81.4534C53.6446 81.3346 53.6075 81.2278 53.534 81.1327C53.4606 81.0363 53.3562 80.9604 53.221 80.9058C53.085 80.8499 52.9233 80.8221 52.7356 80.8221H51.7335V81.9951ZM51.7335 80.2999H52.6326C52.7891 80.2999 52.9309 80.2773 53.0562 80.2316C53.1822 80.1842 53.281 80.119 53.3531 80.0339C53.4263 79.9477 53.463 79.8461 53.463 79.7287C53.463 79.5739 53.3943 79.4462 53.257 79.346C53.1218 79.2454 52.9199 79.1953 52.6518 79.1953H51.7335V80.2999ZM55.3586 82.601V78.5973H56.2676V81.993H58.4773V82.601H55.3586ZM59.2665 82.601V78.5973H62.5294V79.2049H60.1755V80.292H62.3605V80.9003H60.1755V81.993H62.5494V82.601H59.2665ZM66.0769 78.5973V82.601H65.1686V78.5973H66.0769ZM71.185 78.5973V82.601H70.3766L68.012 79.8736H67.9708V82.601H67.0618V78.5973H67.8751L70.2368 81.3264H70.2808V78.5973H71.185ZM72.175 82.601V78.5973H73.084V80.4369H73.1451L75.1029 78.5973H76.2127L74.2725 80.394L76.2299 82.601H75.1372L73.6405 80.8842L73.084 81.4084V82.601H72.175ZM81.2823 79.6978C81.2597 79.5269 81.1632 79.394 80.993 79.2989C80.8251 79.2038 80.6061 79.1561 80.3366 79.1561C80.1471 79.1561 79.9847 79.1788 79.8495 79.2244C79.7135 79.2701 79.6095 79.3319 79.5381 79.4102C79.466 79.4884 79.4293 79.5777 79.4276 79.6779C79.4276 79.7617 79.4516 79.8341 79.4986 79.8952C79.5481 79.9567 79.614 80.0085 79.6971 80.0514C79.7808 80.0929 79.8728 80.1283 79.9741 80.1571C80.0757 80.186 80.1776 80.2097 80.2803 80.2296L80.7509 80.3233C80.9404 80.3586 81.1224 80.4064 81.2968 80.4661C81.4735 80.5262 81.6311 80.6013 81.7698 80.6927C81.9105 80.784 82.0214 80.8942 82.1028 81.0232C82.1848 81.1523 82.2257 81.3034 82.2257 81.4767C82.2257 81.7112 82.1505 81.9182 82.0001 82.0967C81.8498 82.2742 81.6325 82.4125 81.3486 82.5131C81.0661 82.6123 80.7242 82.6617 80.3222 82.6617C79.9319 82.6617 79.5927 82.6133 79.3054 82.5169C79.0194 82.4204 78.7956 82.2797 78.6339 82.0946C78.4739 81.9096 78.3874 81.6841 78.3744 81.418H79.2686C79.2813 81.5577 79.3356 81.6738 79.43 81.7661C79.5251 81.8584 79.6483 81.9281 79.8 81.9731C79.9538 82.0188 80.1255 82.0418 80.3146 82.0418C80.5124 82.0418 80.6854 82.0184 80.834 81.9717C80.984 81.9233 81.1018 81.8571 81.1869 81.7719C81.272 81.6858 81.3153 81.5855 81.3167 81.4709C81.3153 81.3669 81.2765 81.2807 81.2013 81.2131C81.1261 81.1437 81.0208 81.0864 80.8855 81.0408C80.7513 80.9937 80.5947 80.9522 80.4152 80.9158L79.8443 80.7984C79.431 80.7136 79.1045 80.5852 78.8642 80.4132C78.6257 80.2399 78.5065 80.0099 78.5065 79.7232C78.5065 79.487 78.5869 79.2807 78.7468 79.1036C78.9085 78.9261 79.1279 78.7888 79.4059 78.6906C79.6833 78.5918 79.9981 78.5423 80.3489 78.5423C80.7053 78.5423 81.017 78.5918 81.2851 78.6906C81.5546 78.7888 81.7657 78.9247 81.9195 79.0995C82.0733 79.2728 82.1522 79.4719 82.157 79.6978H81.2823ZM86.1989 78.5973H87.1079V81.2131C87.1079 81.4997 87.0227 81.7517 86.8528 81.9697C86.6846 82.187 86.4481 82.3572 86.1425 82.4801C85.837 82.601 85.4803 82.6617 85.0715 82.6617C84.662 82.6617 84.3043 82.601 83.9991 82.4801C83.6932 82.3572 83.4563 82.187 83.2885 81.9697C83.1199 81.7517 83.0358 81.4997 83.0358 81.2131V78.5973H83.9448V81.1523C83.9448 81.3191 83.9905 81.4678 84.0822 81.5982C84.1752 81.7283 84.3056 81.8306 84.4738 81.9051C84.6424 81.9779 84.8415 82.0146 85.0715 82.0146C85.3022 82.0146 85.5013 81.9779 85.6698 81.9051C85.8394 81.8306 85.9702 81.7283 86.0615 81.5982C86.1532 81.4678 86.1989 81.3191 86.1989 81.1523V78.5973ZM88.0955 82.601V78.5973H89.977C90.3625 78.5973 90.6862 78.6542 90.9472 78.7689C91.2104 78.8836 91.4089 79.0415 91.5431 79.2423C91.6783 79.4414 91.746 79.6686 91.746 79.9223C91.746 80.1791 91.6783 80.4074 91.5431 80.6068C91.4071 80.8063 91.2074 80.9632 90.9423 81.0782C90.6777 81.1914 90.3522 81.2481 89.9654 81.2481H88.7182V80.6518H89.8425C90.068 80.6518 90.2527 80.6206 90.3962 80.5577C90.54 80.4956 90.6461 80.4094 90.7147 80.2999C90.7851 80.1904 90.8201 80.0644 90.8201 79.9223C90.8201 79.7805 90.7851 79.6553 90.7147 79.5471C90.6461 79.439 90.539 79.3549 90.3938 79.2951C90.2503 79.2337 90.0646 79.2031 89.8373 79.2031H89.0045V82.601H88.0955ZM92.5355 82.601V78.5973H94.417C94.8026 78.5973 95.1263 78.6542 95.3875 78.7689C95.6505 78.8836 95.8489 79.0415 95.9828 79.2423C96.1184 79.4414 96.186 79.6686 96.186 79.9223C96.186 80.1791 96.1184 80.4074 95.9828 80.6068C95.8472 80.8063 95.647 80.9632 95.3824 81.0782C95.1177 81.1914 94.7923 81.2481 94.4047 81.2481H93.1582V80.6518H94.2825C94.5077 80.6518 94.6924 80.6206 94.8365 80.5577C94.98 80.4956 95.0861 80.4094 95.1548 80.2999C95.2248 80.1904 95.2602 80.0644 95.2602 79.9223C95.2602 79.7805 95.2248 79.6553 95.1548 79.5471C95.0861 79.439 94.979 79.3549 94.8338 79.2951C94.6903 79.2337 94.5046 79.2031 94.2773 79.2031H93.4445V82.601H92.5355ZM96.9755 82.601V78.5973H97.8846V81.993H100.095V82.601H96.9755ZM100.035 78.5973H101.062L102.289 80.3686H102.338L103.565 78.5973H104.592L102.767 81.1073V82.601H101.86V81.1073L100.035 78.5973ZM106.947 82.601V78.5973H108.828C109.214 78.5973 109.538 78.6542 109.799 78.7689C110.062 78.8836 110.26 79.0415 110.394 79.2423C110.529 79.4414 110.597 79.6686 110.597 79.9223C110.597 80.1791 110.529 80.4074 110.394 80.6068C110.259 80.8063 110.058 80.9632 109.794 81.0782C109.529 81.1914 109.203 81.2481 108.816 81.2481H107.569V80.6518H108.694C108.919 80.6518 109.104 80.6206 109.248 80.5577C109.391 80.4956 109.497 80.4094 109.566 80.2999C109.636 80.1904 109.671 80.0644 109.671 79.9223C109.671 79.7805 109.636 79.6553 109.566 79.5471C109.497 79.439 109.39 79.3549 109.245 79.2951C109.101 79.2337 108.916 79.2031 108.689 79.2031H107.856V82.601H106.947ZM111.472 82.601H110.502L112.268 78.5973H113.39L115.159 82.601H114.189L112.849 79.418H112.81L111.472 82.601ZM111.504 81.0311H114.15V81.6137H111.504V81.0311ZM115.82 82.601V78.5973H117.702C118.087 78.5973 118.41 78.6501 118.672 78.7576C118.935 78.864 119.133 79.014 119.267 79.2069C119.403 79.3988 119.471 79.622 119.471 79.8777C119.471 80.1345 119.402 80.3573 119.265 80.5464C119.129 80.7339 118.929 80.8791 118.664 80.9824C118.4 81.084 118.074 81.1348 117.689 81.1348H116.349V80.5323H117.567C117.792 80.5323 117.977 80.5076 118.12 80.4582C118.264 80.4074 118.37 80.3336 118.439 80.2371C118.509 80.1396 118.544 80.0198 118.544 79.8777C118.544 79.7356 118.509 79.6141 118.439 79.5138C118.369 79.4122 118.262 79.3353 118.118 79.2831C117.974 79.2296 117.789 79.2031 117.562 79.2031H116.729V82.601H115.82ZM118.412 80.7867L119.654 82.601H118.64L117.42 80.7867H118.412ZM120.086 79.2049V78.5973H124.09V79.2049H122.539V82.601H121.637V79.2049H120.086ZM128.985 78.5973V82.601H128.177L125.812 79.8736H125.771V82.601H124.862V78.5973H125.675L128.037 81.3264H128.081V78.5973H128.985ZM129.975 82.601V78.5973H133.239V79.2049H130.884V80.292H133.07V80.9003H130.884V81.993H133.258V82.601H129.975ZM134.166 82.601V78.5973H136.048C136.433 78.5973 136.756 78.6501 137.018 78.7576C137.28 78.864 137.479 79.014 137.613 79.2069C137.748 79.3988 137.816 79.622 137.816 79.8777C137.816 80.1345 137.748 80.3573 137.611 80.5464C137.475 80.7339 137.275 80.8791 137.01 80.9824C136.746 81.084 136.421 81.1348 136.035 81.1348H134.695V80.5323H135.913C136.138 80.5323 136.323 80.5076 136.467 80.4582C136.61 80.4074 136.716 80.3336 136.785 80.2371C136.855 80.1396 136.89 80.0198 136.89 79.8777C136.89 79.7356 136.855 79.6141 136.785 79.5138C136.714 79.4122 136.608 79.3353 136.464 79.2831C136.32 79.2296 136.135 79.2031 135.908 79.2031H135.075V82.601H134.166ZM136.758 80.7867L138 82.601H136.986L135.766 80.7867H136.758Z" fill="#0500FF"/>
<path d="M47.3731 12.2886H46.3433V12.9752H47.3731V12.2886Z" fill="white"/>
<path d="M47.1558 14.6916L47.3731 15.293L46.7823 16.408L46.3433 16.3751L46.5753 15.857L46.8077 15.339L46.8197 15.2982C46.8881 15.0699 47.0031 14.8622 47.1558 14.6916Z" fill="#0500FF"/>
<path d="M51.3531 18.1749C51.2443 18.2116 51.1506 18.2487 51.1454 18.2487C51.1406 18.2487 51.0864 18.3222 51.027 18.4118C50.968 18.5065 50.8543 18.8271 50.7754 19.1375C50.5728 19.9215 50.4788 20.2737 50.2419 21.089C49.2344 24.5662 48.958 25.6551 48.6666 27.2438C48.4297 28.5534 48.3655 29.09 48.3113 30.1843C48.2371 31.7727 48.1582 32.3251 48.0051 32.2619C47.9656 32.2461 47.911 32.2725 47.8767 32.3148C47.7236 32.5091 47.3779 34.4136 47.2049 36.002C47.1606 36.407 47.1064 36.7541 47.0865 36.7754C47.0669 36.8015 46.968 36.7699 46.8692 36.7174L46.6865 36.6175V37.717C46.6865 38.7057 46.6965 38.8426 46.7802 39.0215C47.0123 39.5055 47.842 40.0894 48.3061 40.0946C48.785 40.0997 49.0717 39.7578 49.5704 38.5742C49.9505 37.6696 49.9505 37.6696 50.6418 35.8073C50.7455 35.5234 50.8739 35.1918 50.9233 35.071C50.9776 34.9446 51.0912 34.6659 51.1753 34.4503C51.4911 33.6611 51.5457 33.5245 51.6837 33.1984C51.7579 33.0195 51.822 32.8565 51.822 32.8407C51.822 32.8249 51.8567 32.7353 51.8962 32.646C52.0345 32.3199 52.2271 31.736 52.3109 31.3731C52.3603 31.1678 52.4197 30.9574 52.454 30.8997C52.4839 30.8417 52.6466 30.4998 52.8145 30.137C53.2789 29.1373 54.3455 27.1226 54.9576 26.0866C55.017 25.9863 55.1406 25.7707 55.2343 25.6132C55.5353 25.0976 55.8714 24.6503 56.2861 24.2243C56.7107 23.7876 57.3723 23.2352 57.6242 23.1093C58.0489 22.8933 58.5576 22.4306 58.6661 22.157C58.7502 21.9466 58.6809 21.7519 58.4934 21.673C58.2809 21.5837 57.9352 21.5154 57.6932 21.5099C57.0911 21.5099 56.0441 21.7993 55.5106 22.1148C54.8096 22.5356 53.1849 24.7659 52.4739 26.2915C52.2271 26.8123 52.1924 26.9279 52.1876 27.2225C52.1777 27.5592 52.1135 27.7172 51.9951 27.7172C51.7973 27.7172 51.5852 28.0484 51.1554 29.0426C51.0565 29.2688 50.948 29.4531 50.9134 29.4531C50.6665 29.4531 50.7901 28.401 51.279 26.2706C51.4122 25.6918 51.6343 24.7344 51.7678 24.1401C51.9062 23.5456 52.0493 22.9091 52.0888 22.72C52.1283 22.5305 52.2367 22.0204 52.3308 21.5889C52.7801 19.5425 52.6861 18.4694 52.0493 18.2274C51.7283 18.1066 51.5653 18.0959 51.3531 18.1749Z" fill="black"/>
</svg>
