<svg width="231" height="118" viewBox="0 0 231 118" fill="none" xmlns="http://www.w3.org/2000/svg">
<rect width="231" height="118" rx="4" fill="#F0F5F7"/>
<path fill-rule="evenodd" clip-rule="evenodd" d="M179.98 70.81H180.18H180.37L180.53 70.73L180.68 70.62L180.8 70.47L180.88 70.3L180.95 70.09V69.83V69.58L180.9 69.36L180.79 69.18L180.65 69.03L180.46 68.92L180.22 68.84L179.94 68.79H179.61H178.17V72.61H178.68V70.81H179.36L180.36 72.46H180.99L179.98 70.81ZM179.78 70.33H178.68V69.11H179.68H179.83H179.97H180.11L180.21 69.18L180.29 69.28L180.35 69.42V69.59V69.79V69.93L180.26 70.03L180.14 70.1H180L179.78 70.33ZM179.98 70.81H180.18H180.37L180.53 70.73L180.68 70.62L180.8 70.47L180.88 70.3L180.95 70.09V69.83V69.58L180.9 69.36L180.79 69.18L180.65 69.03L180.46 68.92L180.22 68.84L179.94 68.79H179.61H178.17V72.61H178.68V70.81H179.36L180.36 72.46H180.99L179.98 70.81ZM179.78 70.33H178.68V69.11H179.68H179.83H179.97H180.11L180.21 69.18L180.29 69.28L180.35 69.42V69.59V69.79V69.93L180.26 70.03L180.14 70.1H180L179.78 70.33ZM182.78 70.26V69.91L182.68 69.59L182.58 69.27L182.43 68.97L182.25 68.71L182.05 68.45L181.83 68.21L181.59 68L181.33 67.81L181.05 67.64L180.74 67.5L180.43 67.4L180.11 67.31H179.78H179.11H178.77L178.45 67.4L178.15 67.5L177.85 67.64L177.57 67.81L177.3 68L177.06 68.21L176.83 68.45L176.47 68.97L176.33 69.27L176.2 69.59L176.11 69.91V70.26V70.61V70.96V71.3L176.2 71.62L176.33 71.93L176.47 72.23L176.65 72.51L176.83 72.76L177.06 73L177.3 73.22L177.57 73.41L177.85 73.57L178.15 73.7L178.45 73.81L178.77 73.89H179.11H179.78H180.11L180.43 73.81L180.74 73.7L181.05 73.57L181.33 73.41L181.59 73.22L181.83 73L182.05 72.76L182.25 72.51L182.43 72.23L182.58 71.93L182.68 71.62L182.78 71.3V70.96V70.26ZM182.27 70.9V71.2L182.19 71.46L182.1 71.73L181.98 71.97L181.83 72.21L181.66 72.43L181.47 72.63L181.27 72.82L181.04 72.98L180.8 73.11L180.56 73.23L180.29 73.32L180.01 73.39H179.73H179.43H179.14H178.86L178.59 73.32L178.32 73.23L178.07 73.11L177.84 72.98L177.61 72.82L177.41 72.63L177.23 72.43L177.05 72.21L176.9 71.97L176.78 71.73L176.68 71.41L176.6 71.15V70.85V70.26V69.97L176.68 69.69L176.77 69.43L176.89 69.18L177.04 68.94L177.22 68.72L177.4 68.52L177.6 68.35L177.83 68.18L178.06 68.04L178.31 67.92L178.58 67.83L178.85 67.76H179.13H179.72H180L180.28 67.83L180.55 67.92L180.79 68.04L181.03 68.18L181.26 68.35L181.46 68.52L181.65 68.72L181.82 68.94L181.97 69.18L182.09 69.43L182.18 69.69L182.26 69.97V70.26V70.56L182.27 70.9ZM180.14 70.78H180.33L180.49 70.7L180.64 70.59L180.76 70.44L180.84 70.27L180.91 70.06V69.8V69.55L180.86 69.33L180.75 69.15L180.61 69L180.42 68.89L180.18 68.81L179.9 68.76H179.57H178.13V72.58H178.68V70.81H179.36L180.36 72.46H180.99L179.98 70.81L180.14 70.78ZM179.74 70.33H178.68V69.11H179.68H179.83H179.97H180.11L180.21 69.18L180.29 69.28L180.35 69.42V69.59V69.79V69.93L180.26 70.03L180.14 70.1H180L179.74 70.33ZM177.91 49.33H177.11L176.34 49.4L175.62 49.48L174.94 49.61L174.28 49.76L173.67 49.94L173.08 50.16L172.53 50.4L172.01 50.67L171.52 50.96L171.07 51.27L170.64 51.6L170.25 51.95L169.88 52.31L169.54 52.69L169.22 53.09L168.94 53.49L168.68 53.81L168.44 54.22L168.23 54.65L168.03 55.08L167.85 55.51L167.71 55.95L167.57 56.38L167.46 56.82L167.36 57.23L167.29 57.66L167.22 58.08V58.48V58.87V59.25V73.25H172.84V60.34L172.91 59.81L173 59.27L173.14 58.77L173.3 58.28L173.51 57.82L173.74 57.39L174.01 56.99L174.3 56.61L174.64 56.29L174.98 56L175.37 55.74L175.77 55.54L176.21 55.38L176.67 55.27H177.15H177.41H177.63H179H179.09H179.32V49.27L177.91 49.33ZM72.53 61.81V61.09L72.46 60.38L72.35 59.7L72.22 59.03L72.07 58.4L71.89 57.77L71.68 57.13L71.44 56.56L71.19 56.01L70.92 55.49L70.61 54.99L70.29 54.51L69.96 54.05L69.6 53.61L69.21 53.21L68.78 52.81L68.37 52.45L67.92 52.12L67.48 51.81L67.03 51.52L66.54 51.26L66.06 51.02L65.57 50.81L65.05 50.62L64.54 50.45L64 50.32L63.47 50.2L62.92 50.12L62.37 50.05H61.81H61.24H60.46L59.71 50.13L59 50.27L58.34 50.44L57.71 50.64L57.14 50.85L56.61 51.1L56.13 51.34L55.69 51.59L55.32 51.83L54.99 52.05L54.73 52.25L54.51 52.42L54.35 52.55L54.26 52.64V44.74H49V63.01V63.6L49.06 64.17L49.15 64.75L49.26 65.31L49.4 65.87L49.56 66.42L49.75 66.96L49.95 67.48L50.19 67.99L50.45 68.5L50.73 68.98L51.04 69.45L51.36 69.9L51.71 70.34L52.08 70.76L52.47 71.16L52.9 71.55L53.32 71.91L53.79 72.25L54.27 72.57L54.78 72.86L55.31 73.14L55.85 73.38L56.42 73.61L57.02 73.8L57.62 73.97L58.25 74.11L58.91 74.21L59.58 74.29L60.27 74.35H61.52H62.05H62.59L63.12 74.28L63.64 74.19L64.17 74.08L64.67 73.96L65.18 73.81L65.68 73.64L66.17 73.44L66.66 73.23L67.12 72.98L67.58 72.73L68.02 72.44L68.45 72.13L68.85 71.79L69.25 71.43L69.63 71.04L69.99 70.63L70.32 70.17L70.64 69.71L70.94 69.21L71.22 68.69L71.46 68.13L71.69 67.54L71.89 66.93L72.06 66.28L72.21 65.61L72.38 64.81L72.46 64.07V63.3V62.49L72.53 61.81ZM67.19 63.61C67.1947 63.6432 67.1947 63.6768 67.19 63.71V63.8C67.0072 64.4501 66.7238 65.0676 66.35 65.63C65.5285 66.9322 64.2972 67.9243 62.85 68.45C62.5239 68.5599 62.1895 68.6435 61.85 68.7C61.7 68.7 61.54 68.7 61.39 68.76C59.7592 68.8949 58.1381 68.4048 56.8551 67.3892C55.5721 66.3735 54.7231 64.9082 54.48 63.29C54.48 63.18 54.48 63.07 54.48 62.96C54.2878 61.9594 54.3567 60.9262 54.68 59.96C55.0001 59.1383 55.5067 58.4023 56.16 57.81L56.45 57.55C57.4148 56.7418 58.5784 56.2066 59.82 56C60.8407 55.841 61.8843 55.9199 62.8695 56.2303C63.8547 56.5408 64.7549 57.0746 65.5 57.79L65.59 57.87C65.6814 57.9594 65.765 58.0564 65.84 58.16C66.469 58.8934 66.9184 59.7632 67.1528 60.7006C67.3871 61.6379 67.3998 62.6169 67.19 63.56V63.61ZM167.03 62.32V61.95V61.53V61.05V60.54L166.96 59.99L166.86 59.42L166.74 58.81L166.6 58.19L166.42 57.54L166.22 56.9L165.98 56.23L165.71 55.57L165.39 54.93L165.04 54.29L164.64 53.66L164.2 53.06L163.69 52.48L163.14 51.93L162.54 51.42L161.89 50.94L161.16 50.53L160.37 50.15L159.53 49.83L158.61 49.58L157.61 49.39L156.55 49.27H155.41H154.41L153.49 49.35L152.62 49.47L151.79 49.64L151.03 49.86L150.29 50.11L149.62 50.4L148.98 50.74L148.39 51.09L147.83 51.48L147.32 51.88L146.85 52.3L146.41 52.76L146.01 53.22L145.65 53.7L145.31 54.18L145 54.66L144.74 55.16L144.48 55.65L144.27 56.15L144.07 56.63L143.91 57.1L143.76 57.57L143.62 58.02L143.52 58.45L143.44 58.85L143.36 59.24L143.3 59.6V59.92V60.22V60.7V61.06V61.45V61.81V62.27V62.74L143.37 63.22L143.45 63.73L143.54 64.25L143.67 64.78L143.81 65.33L143.98 65.88L144.17 66.43L144.4 66.99L144.64 67.54L144.91 68.09L145.21 68.63L145.55 69.15L145.92 69.67L146.33 70.17L146.75 70.65L147.24 71.1L147.74 71.53L148.29 71.93L148.88 72.31L149.52 72.65L150.19 72.95L150.92 73.22L151.68 73.44L152.5 73.62L153.35 73.75L154.26 73.83H155.26H156.26L157.16 73.75L158.01 73.62L158.82 73.44L159.55 73.23L160.26 72.98L160.9 72.68L161.51 72.36L162.07 72.01L162.59 71.64L163.07 71.25L163.51 70.83L163.92 70.41L164.28 69.98L164.61 69.52L164.91 69.08L165.17 68.64L165.42 68.18L165.63 67.76L165.8 67.33L165.96 66.91L166.11 66.53L166.22 66.15L166.33 65.8L166.41 65.48L166.47 65.19V64.93V64.72V64.54V64.41V64.33H160.64V64.39V64.53L160.54 64.75L160.41 65.04L160.24 65.39L160.02 65.78L159.75 66.18L159.45 66.61L159.07 67.04L158.66 67.44L158.18 67.83L157.64 68.18L157.04 68.47L156.37 68.68L155.65 68.83H154.84L154.05 68.77L153.33 68.59L152.66 68.31L152.07 67.95L151.54 67.52L151.05 67.04L150.64 66.53L150.28 66.01L149.96 65.49L149.7 64.98L149.47 64.5L149.31 64.07L149.18 63.71L149.09 63.43L149.03 63.25V63.19H167.13V62.27L167.03 62.32ZM149.44 58.32V58.21L149.53 58.04L149.68 57.81L149.84 57.56L150.05 57.26L150.29 56.94L150.57 56.62L150.91 56.3L151.3 55.98L151.72 55.68L152.22 55.43L152.75 55.2L153.34 55.03L154 54.92H154.71H155.53L156.27 55.03L156.94 55.2L157.53 55.43L158.07 55.68L158.54 55.98L158.94 56.3L159.29 56.62L159.58 56.94L159.82 57.26L160.01 57.56L160.17 57.81L160.28 58.04L160.36 58.21V58.32H149.44ZM142.88 56.81V56.5V56.19L142.8 55.87L142.71 55.55L142.6 55.22L142.47 54.9L142.32 54.56L142.14 54.23L141.96 53.89L141.68 53.59L141.46 53.27L141.21 52.94L140.96 52.62L140.68 52.31L140.4 52.01L140.09 51.73L139.77 51.43L139.42 51.16L139.07 50.91L138.68 50.67L138.29 50.43L137.9 50.21L137.49 50.03L137.09 49.81L136.68 49.69L136.24 49.54L135.79 49.44L135.32 49.34L134.84 49.28H134.34H133.85H133.44H133.06L132.67 49.34L132.28 49.4L131.89 49.5L131.52 49.6L131.16 49.72L130.78 49.86L130.42 50.01L130.07 50.17L129.72 50.34L129.39 50.51L129.05 50.71L128.73 50.92L128.41 51.12L128.1 51.33V44H122.2V62.18V62.59L122.12 63.05L122.02 63.53L121.89 64.03L121.74 64.55L121.55 65.07L121.33 65.58L121.07 66.07L120.76 66.56L120.42 66.98L120.03 67.39L119.59 67.73L119.09 68.01L118.53 68.23L117.91 68.36L117.24 68.42H116.74L116.24 68.36L115.68 68.23L115.2 68.08L114.76 67.89L114.31 67.67L113.91 67.39L113.54 67.06L113.19 66.7L112.88 66.27L112.6 65.81L112.36 65.29L112.19 64.73L112.04 64.11L111.96 63.44V62.72V55.59H120.49V49.81H111.93V44.47H106.11V58.02L105.95 57.56L105.76 57.12L105.56 56.68L105.36 56.25L105.12 55.81L104.88 55.4L104.63 55L104.35 54.61L104.06 54.24L103.76 53.88L103.45 53.52L103.11 53.18L102.78 52.85L102.42 52.54L102.06 52.24L101.68 51.98L101.29 51.71L100.89 51.46L100.49 51.2L100.06 50.98L99.68 50.81L99.24 50.6L98.8 50.43L98.35 50.27L97.88 50.12L97.41 50L96.93 49.89L96.39 49.81L95.9 49.74H95.4H94.9H93.68H93.33H93H92.65H92.32L91.98 49.8L91.68 49.91L91.36 49.99L91.03 50.08L90.71 50.17L90.39 50.28L90.07 50.39L89.76 50.51L89.45 50.64L89.16 50.77L88.87 50.92L88.57 51.07L88.28 51.23L87.99 51.4L87.71 51.58L87.45 51.75L87.17 51.94L86.91 52.14L86.64 52.34L86.4 52.55L86.15 52.77L85.91 53L85.68 53.22L85.45 53.45L85.22 53.69L85.01 53.95V49.81H83.68H82.88L82.11 49.88L81.39 49.96L80.71 50.09L80.05 50.24L79.44 50.42L78.85 50.64L78.3 50.88L77.79 51.15L77.29 51.44L76.84 51.75L76.42 52.08L76.02 52.43L75.68 52.81L75.33 53.19L75.03 53.58L74.73 53.99L74.48 54.39L74.24 54.82L74.02 55.25L73.82 55.68L73.65 56.11L73.5 56.55L73.37 56.98L73.25 57.4L73.15 57.83L73.07 58.25L73.02 58.66L72.96 59.06V59.45V59.84V73.81H78.57V60.93L78.64 60.39L78.68 59.81L78.82 59.3L78.98 58.81L79.18 58.35L79.41 57.92L79.69 57.52L79.98 57.15L80.32 56.83L80.68 56.53L81.07 56.29L81.48 56.08L81.92 55.93L82.38 55.82H82.87H83.09H83.2H83.68L83.49 56.17L83.3 56.51L83.13 56.87L82.97 57.24L82.82 57.61L82.69 57.99L82.45 58.75L82.35 59.15L82.26 59.54L82.19 59.94L82.12 60.36V60.76V61.17V62.01V62.66V63.29L82.21 63.9L82.31 64.5L82.45 65.11L82.62 65.7L82.81 66.27L83.04 66.83L83.29 67.38L83.56 67.92L83.85 68.43L84.17 68.93L84.52 69.42L84.9 69.88L85.28 70.33L85.7 70.75L86.13 71.17L86.57 71.56L87.04 71.92L87.52 72.27L88.03 72.59L88.55 72.88L89.07 73.15L89.62 73.4L90.18 73.62L90.68 73.81L91.27 73.97L91.86 74.1L92.47 74.21L93.09 74.29L93.72 74.35H94.88H95.4L95.92 74.29L96.43 74.21L96.94 74.12L97.44 74L97.92 73.87L98.4 73.71L98.88 73.53L99.34 73.33L99.79 73.12L100.25 72.89L100.68 72.65L101.09 72.38L101.51 72.1L101.91 71.81L102.3 71.5L102.68 71.11L103.04 70.76L103.38 70.41L103.71 70.04L104.03 69.66L104.33 69.26L104.62 68.86L104.89 68.44L105.14 68.01L105.38 67.57L105.6 67.12L105.8 66.66L105.99 66.19L106.15 65.71L106.29 65.23L106.35 65.61L106.42 65.98L106.5 66.37L106.58 66.76L106.67 67.14L106.78 67.53L106.9 67.92L107.03 68.31L107.18 68.68L107.34 69.07L107.53 69.45L107.71 69.82L107.93 70.18L108.16 70.53L108.4 70.88L108.65 71.21L108.93 71.54L109.24 71.86L109.56 72.15L109.9 72.43L110.26 72.7L110.65 72.94L111.05 73.18L111.49 73.38L111.94 73.58L112.41 73.74L112.92 73.89L113.46 74.01L114.02 74.11L114.59 74.19H115.21H116.43H116.99L117.51 74.12L118.01 74.04L118.48 73.92L118.93 73.8L119.35 73.65L119.75 73.48L120.12 73.3L120.47 73.1L120.81 72.9L121.11 72.69L121.39 72.46L121.66 72.22L121.9 71.98L122.13 71.74V73.52H128.03V59.58L128.13 59.29L128.23 58.98L128.37 58.66L128.53 58.32L128.7 57.98L128.92 57.64L129.16 57.31L129.43 56.99L129.73 56.68L130.07 56.4L130.44 56.14L130.86 55.93L131.31 55.75L131.81 55.62L132.34 55.54H132.93H133.6L134.19 55.64L134.71 55.8L135.17 56L135.57 56.27L135.92 56.56L136.21 56.91L136.47 57.28L136.67 57.7L136.84 58.14L136.97 58.61L137.07 59.09L137.15 59.6V60.12V60.66V61.19V62.93V63.36V68.36V68.85V73.36H142.75V56.81H142.88ZM100.81 62.66L100.7 63.3L100.54 63.93L100.33 64.52L100.06 65.08L99.74 65.62L99.37 66.11L98.95 66.57L98.48 66.98L97.99 67.36L97.45 67.68L96.89 67.95L96.3 68.16L95.67 68.32L95.03 68.43H94.37H93.7L93.06 68.32L92.43 68.16L91.83 67.95L91.27 67.68L90.73 67.36L90.22 66.98L89.77 66.57L89.34 66.11L88.98 65.62L88.68 65.08L88.42 64.52L88.2 63.93L88.04 63.3L87.94 62.66V62V61.35L88.04 60.71L88.2 60.09L88.42 59.49L88.68 58.93L89.02 58.4L89.38 57.9L89.81 57.44L90.26 57.03L90.77 56.65L91.31 56.33L91.87 56.06L92.47 55.85L93.1 55.69L93.74 55.58H94.41H95.07L95.71 55.69L96.34 55.85L96.93 56.06L97.49 56.33L98.03 56.65L98.52 57.03L98.99 57.44L99.41 57.9L99.78 58.4L100.1 58.93L100.37 59.49L100.58 60.09L100.74 60.71L100.85 61.35V62L100.81 62.66Z" fill="#35479D"/>
</svg>
