<svg width="232" height="118" viewBox="0 0 232 118" fill="none" xmlns="http://www.w3.org/2000/svg">
<rect width="232" height="118" rx="4" fill="#F0F5F7"/>
<path fill-rule="evenodd" clip-rule="evenodd" d="M179.36 64.82C179.037 64.8182 178.721 64.9115 178.452 65.0884C178.182 65.2653 177.97 65.5179 177.843 65.8144C177.716 66.111 177.679 66.4385 177.738 66.7558C177.796 67.0731 177.946 67.3662 178.17 67.5985C178.394 67.8307 178.682 67.9917 178.997 68.0613C179.312 68.1309 179.64 68.1061 179.941 67.9899C180.242 67.8737 180.502 67.6713 180.689 67.4081C180.875 67.1449 180.98 66.8324 180.99 66.51C180.987 66.0775 180.815 65.6634 180.51 65.3567C180.205 65.05 179.792 64.8752 179.36 64.87V64.82ZM179.36 67.9C178.986 67.9027 178.625 67.7587 178.356 67.4989C178.087 67.239 177.93 66.884 177.92 66.51C177.92 66.2252 178.004 65.9468 178.163 65.71C178.321 65.4731 178.546 65.2886 178.809 65.1796C179.072 65.0706 179.362 65.0421 179.641 65.0976C179.92 65.1532 180.177 65.2904 180.378 65.4917C180.58 65.6931 180.717 65.9497 180.772 66.229C180.828 66.5084 180.799 66.7979 180.69 67.061C180.581 67.3242 180.397 67.5491 180.16 67.7073C179.923 67.8655 179.645 67.95 179.36 67.95V67.9Z" fill="#CD202A"/>
<path fill-rule="evenodd" clip-rule="evenodd" d="M180.2 66.03C180.203 65.9507 180.186 65.872 180.149 65.8017C180.112 65.7315 180.057 65.6722 179.99 65.63C179.851 65.5603 179.695 65.5292 179.54 65.54H178.75V67.37H178.97V66.51H179.38L179.9 67.35H180.17L179.62 66.51C179.94 66.51 180.2 66.37 180.2 66.01V66.03ZM179.31 66.35H178.97V65.71H179.49C179.72 65.71 179.97 65.71 179.97 66.02C179.97 66.33 179.57 66.35 179.31 66.35ZM168.52 49.16C164.9 49.1934 161.284 49.4304 157.69 49.87V67.71H163.38V61.26C165.448 61.6288 167.54 61.8427 169.64 61.9C171.07 61.9 181.35 61.46 181.35 55.37C181.35 48.84 170.44 49.16 168.52 49.16ZM168.84 58.79C166.994 58.8455 165.151 58.6058 163.38 58.08V52.58C165.3 52.42 168.38 52.3 169.2 52.3C170.02 52.3 174.62 52.5 174.66 55.45C174.7 58.4 170.67 58.79 168.84 58.79ZM70.71 57.04C69.18 56.7 63.39 55.77 61.87 55.57C59.87 55.33 58.73 54.97 58.73 53.86C58.73 52.34 61.67 52.6 64.06 52.7C67.01 52.82 72.55 54.7 74.14 55.33L76.01 51.23C72.94 49.71 67.01 49 63.31 49C60.6 49.04 51.55 49.68 51.44 54.51C51.36 57.94 54.36 59.18 58.17 60.13C61.44 60.8 65.06 61.13 67.53 61.64C70.69 62.3 70.67 64.55 68.17 64.79C63.84 65.1 56.5 62.96 53.17 61.28L51 65.64C55.66 67.91 62.87 68.51 65.34 68.43C68.52 68.43 76.97 68.07 76.97 63.01C76.96 59.69 74.1 57.8 70.71 57.04ZM95.97 56.8H84.19V49.87H78.13V67.71H84.19V60.39H95.97V67.71H101.97V49.87H95.97V56.8ZM120.68 49.87H113.23L102.76 67.71H107.44L109.87 63.65H121.7L124.14 67.71H131.44L120.68 49.87ZM111.95 60.07L115.7 53.66L119.55 60.07H111.95ZM155.95 55.07C155.95 48.54 144.84 49.14 142.95 49.14C139.33 49.1731 135.714 49.4101 132.12 49.85V67.71H137.9V52.58C139.97 52.42 142.9 52.3 143.78 52.3C144.66 52.3 149.16 52.14 149.2 55.37C149.2 58.44 145.02 58.48 143.2 58.48C142.147 58.45 141.103 58.2887 140.09 58L139.02 59.83L147.94 67.71H156.44L148.68 60.89C151.97 60.22 155.95 58.68 155.93 55.09L155.95 55.07Z" fill="#CD202A"/>
</svg>
