<svg width="232" height="118" viewBox="0 0 232 118" fill="none" xmlns="http://www.w3.org/2000/svg">
<rect width="232" height="118" rx="4" fill="#F0F5F7"/>
<path d="M70.42 46H49V51.21L50.95 58.93L57.1 59.28L62.31 54.07L72.67 51.93L70.42 46Z" fill="#3BB54A"/>
<path d="M49 51.21V72.63H54.21L62.93 71.93L62.32 64.55L49 51.21Z" fill="#6FBE44"/>
<path d="M54.21 72.6301H75.67V67.4201L73.39 60.4801L67.56 59.3101L54.21 72.6301Z" fill="#006547"/>
<path d="M178.08 56.57L173.37 60.85L178.08 65.15V67.64H177.94L170.94 61.29V67.29H168.94V49.08H170.94V60.48L177.94 54.15H178.12V56.57H178.08ZM86.6699 67.33H97.0499V65.33H88.8199V49.67H86.6699V67.33ZM104.17 54.16C100.99 54.16 98.0999 56.74 98.0999 60.9C98.0999 65.06 100.75 67.61 104.56 67.61C106.237 67.6455 107.88 67.1329 109.24 66.15V63.98C107.97 65.0855 106.353 65.7117 104.67 65.75C104.107 65.781 103.544 65.6999 103.012 65.5115C102.481 65.3232 101.993 65.0313 101.575 64.6527C101.157 64.2741 100.819 63.8164 100.579 63.3062C100.34 62.7959 100.204 62.2431 100.18 61.68H109.82C109.82 61.43 109.9 60.86 109.9 60.68C109.9 56.43 107.33 54.2 104.22 54.2L104.17 54.16ZM104.17 56.01C104.681 55.9927 105.19 56.0838 105.663 56.2772C106.136 56.4707 106.563 56.7622 106.915 57.1325C107.267 57.5029 107.537 57.9436 107.707 58.4258C107.877 58.9079 107.943 59.4206 107.9 59.93H100.16C100.184 58.8743 100.624 57.8708 101.384 57.1384C102.145 56.4059 103.164 56.0039 104.22 56.02L104.17 56.01ZM138.17 54.16C137.405 54.1535 136.653 54.3607 136 54.7582C135.346 55.1557 134.816 55.7278 134.47 56.41C134.191 55.6981 133.69 55.0949 133.042 54.6897C132.394 54.2844 131.632 54.0987 130.87 54.16C130.15 54.1631 129.445 54.3693 128.836 54.7549C128.228 55.1405 127.74 55.6899 127.43 56.34H127.37L127.13 54.42H125.57V67.31H127.67V59.17C127.646 58.7898 127.698 58.4086 127.825 58.0494C127.952 57.6903 128.151 57.3605 128.409 57.0802C128.667 56.7998 128.979 56.5746 129.326 56.4182C129.674 56.2617 130.049 56.1773 130.43 56.17C132.17 56.17 132.94 57.17 132.94 59.06V67.33H135V59.04C134.977 58.6715 135.028 58.3021 135.151 57.9539C135.274 57.6057 135.466 57.2858 135.715 57.0133C135.964 56.7408 136.266 56.5212 136.602 56.3678C136.937 56.2143 137.301 56.13 137.67 56.12C139.44 56.12 140.19 57.12 140.19 59.01V67.33H142.25V58.73C142.25 56.03 141 54.16 138.18 54.16H138.17ZM150.55 54.16C147.47 54.16 144.55 56.77 144.55 60.9C144.55 65.03 147.41 67.61 150.55 67.61C151.51 67.6367 152.459 67.399 153.293 66.9228C154.127 66.4466 154.815 65.7503 155.28 64.91L155.53 67.33H157.2V54.43H155.53L155.28 56.85C154.813 56.0228 154.132 55.3365 153.309 54.8631C152.485 54.3898 151.55 54.1469 150.6 54.16H150.55ZM150.93 56.08C153.36 56.08 155.21 58.08 155.21 60.89C155.21 63.7 153.37 65.69 150.93 65.69C148.49 65.69 146.67 63.76 146.67 60.93C146.67 58.1 148.56 56.1 150.95 56.1L150.93 56.08ZM165.93 54.29C165.172 54.2877 164.427 54.4911 163.776 54.8785C163.124 55.2659 162.59 55.8229 162.23 56.49L162.01 54.43H160.37V67.33H162.37V59.93C162.37 56.93 164.79 56.02 166.77 56.42V54.42C166.485 54.378 166.198 54.3579 165.91 54.36L165.93 54.29ZM122.85 54.14H122.69L117.3 59.51L111.93 54.14H111.77V56.74L116 60.93L111.86 65.04V67.68H112.02L117.37 62.28L122.78 67.68H122.94V64.99L118.76 60.85L122.94 56.64V54.14H122.85ZM177.99 49.36V49.08H180.24V49.36H179.29V51.6H178.95V49.35L177.99 49.36ZM181.37 49.08L182.37 51.21L183.37 49.08H183.83V51.6H183.51V49.48L182.51 51.6H182.22L181.22 49.48V51.6H180.9V49.06H181.36L181.37 49.08Z" fill="#32333D"/>
<path d="M75.6701 67.42V46H70.4201L62.3201 54.1L75.6701 67.42Z" fill="#0A8B44"/>
</svg>
