<svg width="231" height="118" viewBox="0 0 231 118" fill="none" xmlns="http://www.w3.org/2000/svg">
<rect width="231" height="118" rx="4" fill="#F0F5F7"/>
<path d="M101.26 58.9007C101.26 63.5307 104.69 66.9007 110.41 66.9007C112.825 66.939 115.217 66.4331 117.41 65.4207L119.6 68.3607C116.476 70.0478 112.959 70.8727 109.41 70.7507C100.27 70.7507 93.5601 66.3407 93.5601 58.8807C93.5601 51.4107 100.27 47.0107 109.41 47.0107C112.852 46.9046 116.273 47.5888 119.41 49.0107L117.2 52.3607C115.109 51.2706 112.766 50.7531 110.41 50.8607C104.69 50.8607 101.26 54.2707 101.26 58.8607" fill="#E21D39"/>
<path d="M136.11 47.0306C127.27 47.0306 120.89 51.4306 120.89 58.9006C120.89 66.3706 127.27 70.7706 136.11 70.7706C144.95 70.7706 151.35 66.3606 151.35 58.9006C151.35 51.4406 144.98 47.0306 136.13 47.0306M136.13 67.0306C131.27 67.0306 128.58 63.3806 128.58 58.8506C128.58 54.3206 131.27 50.6706 136.13 50.6706C140.99 50.6706 143.68 54.3206 143.68 58.8506C143.68 63.3806 141 67.0306 136.13 67.0306Z" fill="#E21D39"/>
<path d="M174.35 60.6207V70.1707H181.65V47.6307H174.35V56.2207H163.16V47.6307H155.86V70.1707H163.16V60.6207H174.35Z" fill="#E21D39"/>
<path d="M89.15 70.1707V47.6307H81.46V70.1707H89.15Z" fill="#E21D39"/>
<path d="M59.35 57.9507V60.1007C63.0886 63.029 66.4478 66.4117 69.35 70.1707H77.96C74.7475 66.4245 71.048 63.1252 66.96 60.3607C70.96 60.2007 75.36 58.5907 75.36 54.0207C75.36 48.1707 69.11 47.1007 62.78 47.1007C57.62 47.1007 52.85 47.3407 50 47.5707V70.1707H57.25V50.9707C59.1221 50.7551 61.0056 50.6549 62.89 50.6707C66.59 50.6707 68.46 51.8907 68.46 54.0207C68.46 55.8407 67.69 58.0207 59.38 57.9507" fill="#E21D39"/>
</svg>
