<svg width="232" height="118" viewBox="0 0 232 118" fill="none" xmlns="http://www.w3.org/2000/svg">
<rect width="232" height="118" rx="4" fill="#F0F5F7"/>
<path d="M77.4939 82.105H76.7939L81.6139 68.865H88.2439C88.8572 68.8361 89.4494 68.6325 89.9508 68.2782C90.4523 67.9238 90.8419 67.4335 91.0739 66.865L96.3039 52.515C96.5309 52.0356 96.6267 51.5046 96.5816 50.9761C96.5365 50.4476 96.3521 49.9405 96.0472 49.5065C95.7423 49.0724 95.3277 48.727 94.8458 48.5054C94.3639 48.2838 93.8318 48.194 93.3039 48.245H84.1039L76.3939 69.445L72.0139 81.445C66.9538 80.2176 62.4425 77.3492 59.1844 73.2877C55.9264 69.2261 54.1049 64.2001 54.0044 58.9942C53.9039 53.7884 55.53 48.6957 58.6289 44.5115C61.7277 40.3272 66.1249 37.2868 71.1339 35.865L66.6239 48.265L59.1139 68.865H64.1139L70.4939 51.345H74.2439L67.8939 68.865H72.8939L78.8439 52.525C79.0709 52.0456 79.1667 51.5146 79.1216 50.9861C79.0765 50.4576 78.8921 49.9505 78.5872 49.5165C78.2823 49.0824 77.8677 48.737 77.3858 48.5154C76.9039 48.2938 76.3718 48.204 75.8439 48.255H71.6439L76.4639 35.005H77.5239C80.6593 34.9404 83.7761 35.5022 86.6917 36.6574C89.6073 37.8127 92.263 39.5381 94.5033 41.7327C96.7436 43.9273 98.5234 46.547 99.7384 49.4381C100.953 52.3293 101.579 55.4339 101.579 58.57C101.579 61.7061 100.953 64.8107 99.7384 67.7019C98.5234 70.593 96.7436 73.2127 94.5033 75.4073C92.263 77.6019 89.6073 79.3274 86.6917 80.4826C83.7761 81.6378 80.6593 82.1996 77.5239 82.135L77.4939 82.105ZM91.7539 51.335H88.0039L82.7439 65.745H86.5039L91.7539 51.335Z" fill="#0094D5"/>
<g clip-path="url(#clip0_110_1274)">
<path d="M175.551 49.4942V56.3646H173.641V49.4942H170.737V47.641H178.455V49.5055L175.551 49.4942ZM166.307 49.4942V56.3646H164.397V49.4942H161.505V47.641H169.234V49.5055L166.307 49.4942ZM177.607 69.4726C177.123 69.8229 176.53 69.9874 175.935 69.9359H169.754V61.201H175.935C176.529 61.162 177.118 61.3253 177.607 61.6643C178.037 62.0485 178.59 62.4892 178.59 65.3933C178.59 68.2974 178.251 69.0093 177.607 69.4952V69.4726ZM153.21 56.3759C153.022 56.3978 152.832 56.381 152.651 56.3267C152.469 56.2723 152.301 56.1815 152.156 56.0599C152.011 55.9382 151.893 55.7882 151.808 55.6191C151.723 55.45 151.673 55.2653 151.662 55.0764V48.9518C151.672 48.7623 151.72 48.5768 151.805 48.4069C151.889 48.237 152.008 48.0863 152.153 47.9643C152.298 47.8424 152.467 47.7517 152.649 47.698C152.831 47.6443 153.022 47.6288 153.21 47.6523H159.742V49.5055H153.572V51.031H158.973V52.7034H153.572V54.5114H159.99V56.3759H153.21ZM166.77 67.19C166.97 67.325 167.135 67.5046 167.252 67.7144C167.37 67.9243 167.437 68.1587 167.448 68.3991V69.9472H165.584V68.6138C165.584 68.1392 165.177 67.4838 164.183 67.4838H160.974V69.9472H159.064V61.201H165.222C166.748 61.201 167.833 62.6361 167.833 64.5345C167.887 65.0282 167.821 65.5277 167.639 65.9901C167.458 66.4526 167.168 66.8643 166.793 67.19H166.77ZM144.803 56.3759C144.616 56.3978 144.426 56.381 144.245 56.3265C144.065 56.2721 143.897 56.1811 143.753 56.0593C143.609 55.9375 143.492 55.7874 143.408 55.6184C143.324 55.4493 143.276 55.2648 143.266 55.0764V47.641H145.165V54.5227H150.668V56.3759H144.803ZM155.617 69.9359L154.804 68.2748H149.832L149.075 69.9359H147.56V68.8059L150.95 61.2462H152.713C153.02 61.2077 153.331 61.2708 153.598 61.4259C153.866 61.581 154.075 61.8196 154.194 62.105L157.651 69.9472L155.617 69.9359ZM138.916 56.3759H137.402C137.135 56.3395 136.885 56.2244 136.683 56.0453C136.482 55.8662 136.339 55.6311 136.272 55.3702L134.95 50.2061L133.255 56.3759H131.797C131.368 56.3759 130.859 56.0934 130.554 55.1329L128.204 47.641H130.181L132.023 53.6752L133.899 47.641H136.023L137.854 53.6752L139.786 47.641H141.82L138.916 56.3759ZM143.04 65.3029L146.43 68.7607V69.8907H145.007L141.357 66.2521H140.114V69.9472H138.204V61.201H140.114V64.365H141.357L144.634 61.201H147.221L143.04 65.3029ZM120.214 56.3759C120.024 56.4047 119.83 56.393 119.645 56.3415C119.459 56.2901 119.287 56.2001 119.138 56.0775C118.99 55.9548 118.87 55.8022 118.784 55.6297C118.699 55.4572 118.651 55.2687 118.644 55.0764V48.9518C118.652 48.7628 118.699 48.5775 118.782 48.4076C118.865 48.2378 118.983 48.087 119.127 47.9648C119.271 47.8427 119.44 47.7519 119.621 47.6981C119.802 47.6443 119.993 47.6287 120.181 47.6523H126.723V49.5055H120.576V51.031H125.989V52.7034H120.576V54.5114H126.994V56.3759H120.214ZM135.944 69.2466C135.3 69.8907 134.814 70.015 132.068 70.015C129.322 70.015 128.882 70.015 128.204 69.2466C127.526 68.4782 127.458 67.529 127.458 65.495C127.458 63.461 127.571 62.5231 128.204 61.879C128.836 61.2349 129.334 61.0993 132.068 61.0993C134.803 61.0993 135.3 61.2236 135.944 61.879C136.27 62.2531 136.436 62.7398 136.407 63.235V63.8H134.577C134.583 63.5688 134.545 63.3386 134.464 63.122C134.294 62.9073 133.91 62.8169 132.091 62.8169C130.271 62.8169 129.899 62.8169 129.706 63.0768C129.514 63.3367 129.447 63.7774 129.447 65.5628C129.447 67.3482 129.514 67.8228 129.706 68.0714C129.899 68.32 130.192 68.3426 132.091 68.3426C133.989 68.3426 134.294 68.2409 134.464 68.0262C134.581 67.8044 134.62 67.5499 134.577 67.303H136.464V67.9019C136.489 68.3966 136.323 68.882 136.001 69.2579L135.944 69.2466ZM114.542 56.3759V52.7147H109.265V56.3759H107.344V47.641H109.253V51.031H114.531V47.641H116.44V56.3759H114.542ZM124.486 69.9359L123.763 68.2635H118.7L117.954 69.9472H115.943L119.774 61.2123H121.582C121.908 61.1601 122.241 61.22 122.529 61.3821C122.816 61.5443 123.04 61.7991 123.164 62.105L126.554 69.9472L124.486 69.9359ZM113.898 67.4612H109.265V69.9472H107.344V61.201H113.672C115.186 61.201 116.056 62.4553 116.056 64.365C116.056 66.2747 115.186 67.4612 113.886 67.4612H113.898ZM176.274 63.1333C176.147 63.028 176.002 62.9488 175.844 62.9004C175.687 62.8519 175.522 62.835 175.358 62.8508H171.663V68.1844H175.381C175.703 68.2137 176.024 68.1254 176.285 67.9358C176.568 67.6533 176.726 66.9075 176.726 65.4272C176.726 63.9469 176.726 63.4045 176.308 63.1672L176.274 63.1333ZM164.816 62.9977H160.974V65.7662H164.759C165.46 65.7662 165.889 65.0656 165.889 64.3876C165.889 63.7096 165.437 62.9864 164.883 62.9864L164.816 62.9977ZM152.386 62.5344L150.578 66.5685H154.092L152.386 62.5344ZM121.254 62.4327L119.446 66.5685H123.017L121.254 62.4327ZM113.231 62.9638H109.253V65.6758H113.22C113.785 65.6758 114.124 65.0317 114.124 64.3311C114.124 63.6305 113.762 62.9751 113.22 62.9751L113.231 62.9638Z" fill="#0094D5"/>
</g>
<defs>
<clipPath id="clip0_110_1274">
<rect width="71.2465" height="22.374" fill="white" transform="matrix(1 0 0 -1 107.344 70.015)"/>
</clipPath>
</defs>
</svg>
