<svg width="19" height="19" viewBox="0 0 19 19" fill="none" xmlns="http://www.w3.org/2000/svg">
<g clip-path="url(#clip0_207_116)">
<path d="M17.2713 13.0843V15.3372C17.2721 15.5463 17.2293 15.7534 17.1455 15.945C17.0617 16.1366 16.9388 16.3086 16.7847 16.45C16.6306 16.5914 16.4487 16.6991 16.2505 16.7661C16.0524 16.8331 15.8425 16.858 15.6342 16.8391C13.3233 16.588 11.1036 15.7984 9.15332 14.5337C7.33885 13.3807 5.8005 11.8423 4.64751 10.0278C3.37835 8.06872 2.58853 5.83819 2.34203 3.51695C2.32327 3.30928 2.34795 3.09998 2.4145 2.90237C2.48106 2.70476 2.58803 2.52318 2.72861 2.36918C2.86918 2.21518 3.04029 2.09214 3.23102 2.00789C3.42176 1.92364 3.62795 1.88003 3.83646 1.87983H6.08937C6.45382 1.87625 6.80714 2.0053 7.08347 2.24295C7.35981 2.4806 7.5403 2.81062 7.59131 3.1715C7.6864 3.89248 7.86274 4.60039 8.11698 5.28172C8.21802 5.55051 8.23989 5.84263 8.18 6.12347C8.1201 6.40431 7.98096 6.66209 7.77905 6.86627L6.82532 7.82C7.89436 9.70008 9.45105 11.2568 11.3311 12.3258L12.2849 11.3721C12.489 11.1702 12.7468 11.031 13.0277 10.9711C13.3085 10.9112 13.6006 10.9331 13.8694 11.0341C14.5507 11.2884 15.2587 11.4647 15.9796 11.5598C16.3444 11.6113 16.6776 11.795 16.9157 12.0761C17.1539 12.3572 17.2804 12.716 17.2713 13.0843Z" stroke="white" stroke-width="1.50194" stroke-linecap="round" stroke-linejoin="round"/>
</g>
<defs>
<clipPath id="clip0_207_116">
<rect width="18.0233" height="18.0233" fill="white" transform="translate(0.75 0.377899)"/>
</clipPath>
</defs>
</svg>
