<svg width="19" height="24" viewBox="0 0 19 24" fill="none" xmlns="http://www.w3.org/2000/svg">
<g clip-path="url(#clip0_206_7938)">
<path d="M12.7696 18.9387V17.438C12.7696 16.642 12.4533 15.8785 11.8905 15.3156C11.3276 14.7527 10.5641 14.4365 9.76809 14.4365H3.76515C2.96911 14.4365 2.20567 14.7527 1.64278 15.3156C1.0799 15.8785 0.763672 16.642 0.763672 17.438V18.9387" stroke="#FD7E00" stroke-width="1.50074" stroke-linecap="round" stroke-linejoin="round"/>
<path d="M6.76807 11.4351C8.42574 11.4351 9.76955 10.0913 9.76955 8.4336C9.76955 6.77593 8.42574 5.43213 6.76807 5.43213C5.11041 5.43213 3.7666 6.77593 3.7666 8.4336C3.7666 10.0913 5.11041 11.4351 6.76807 11.4351Z" stroke="#FD7E00" stroke-width="1.50074" stroke-linecap="round" stroke-linejoin="round"/>
<path d="M17.2726 18.9388V17.438C17.2721 16.773 17.0507 16.127 16.6433 15.6014C16.2359 15.0758 15.6654 14.7004 15.0215 14.5341" stroke="#FD7E00" stroke-width="1.50074" stroke-linecap="round" stroke-linejoin="round"/>
<path d="M12.0195 5.52966C12.6652 5.69497 13.2374 6.07045 13.6461 6.59692C14.0547 7.12339 14.2765 7.77089 14.2765 8.43734C14.2765 9.1038 14.0547 9.7513 13.6461 10.2778C13.2374 10.8042 12.6652 11.1797 12.0195 11.345" stroke="#FD7E00" stroke-width="1.50074" stroke-linecap="round" stroke-linejoin="round"/>
</g>
<defs>
<clipPath id="clip0_206_7938">
<rect width="18.0088" height="22.511" fill="white" transform="translate(0.0136719 0.929932)"/>
</clipPath>
</defs>
</svg>
