<svg width="19" height="19" viewBox="0 0 19 19" fill="none" xmlns="http://www.w3.org/2000/svg">
<g clip-path="url(#clip0_207_107)">
<path d="M16.5204 8.24223C16.5204 13.499 9.76165 18.0048 9.76165 18.0048C9.76165 18.0048 3.00293 13.499 3.00293 8.24223C3.00293 6.4497 3.71501 4.73059 4.98251 3.46309C6.25002 2.19558 7.96913 1.48351 9.76165 1.48351C11.5542 1.48351 13.2733 2.19558 14.5408 3.46309C15.8083 4.73059 16.5204 6.4497 16.5204 8.24223Z" stroke="white" stroke-width="1.50194" stroke-linecap="round" stroke-linejoin="round"/>
<path d="M9.7617 10.4951C11.0059 10.4951 12.0146 9.48647 12.0146 8.24223C12.0146 6.99798 11.0059 5.98932 9.7617 5.98932C8.51745 5.98932 7.50879 6.99798 7.50879 8.24223C7.50879 9.48647 8.51745 10.4951 9.7617 10.4951Z" stroke="white" stroke-width="1.50194" stroke-linecap="round" stroke-linejoin="round"/>
</g>
<defs>
<clipPath id="clip0_207_107">
<rect width="18.0233" height="18.0233" fill="white" transform="translate(0.75 0.732544)"/>
</clipPath>
</defs>
</svg>
