<svg width="16" height="17" viewBox="0 0 16 17" fill="none" xmlns="http://www.w3.org/2000/svg">
<g clip-path="url(#clip0_207_3046)">
<path d="M7.2518 3.0845H2.14471C1.75772 3.0845 1.38657 3.23824 1.11293 3.51188C0.83928 3.78553 0.685547 4.15667 0.685547 4.54367V14.7578C0.685547 15.1448 0.83928 15.516 1.11293 15.7896C1.38657 16.0633 1.75772 16.217 2.14471 16.217H12.3589C12.7459 16.217 13.117 16.0633 13.3907 15.7896C13.6643 15.516 13.818 15.1448 13.818 14.7578V9.65075" stroke="#767676" stroke-width="1.45938" stroke-linecap="round" stroke-linejoin="round"/>
<path d="M12.7231 1.99012C13.0134 1.69988 13.407 1.53682 13.8175 1.53682C14.228 1.53682 14.6216 1.69988 14.9119 1.99012C15.2021 2.28037 15.3652 2.67403 15.3652 3.0845C15.3652 3.49497 15.2021 3.88863 14.9119 4.17887L7.98083 11.1099L5.0625 11.8395L5.79208 8.92117L12.7231 1.99012Z" stroke="#767676" stroke-width="1.45938" stroke-linecap="round" stroke-linejoin="round"/>
</g>
<defs>
<clipPath id="clip0_207_3046">
<rect width="15.0569" height="16.275" fill="white" transform="translate(0.226562 0.166168)"/>
</clipPath>
</defs>
</svg>
