<svg width="16" height="17" viewBox="0 0 16 17" fill="none" xmlns="http://www.w3.org/2000/svg">
<g clip-path="url(#clip0_207_3050)">
<path d="M1.83789 4.54373H3.29706H14.9704" stroke="#767676" stroke-width="1.45938" stroke-linecap="round" stroke-linejoin="round"/>
<path d="M13.511 4.54373V14.7579C13.511 15.1449 13.3573 15.516 13.0837 15.7897C12.81 16.0633 12.4389 16.2171 12.0519 16.2171H4.75604C4.36905 16.2171 3.9979 16.0633 3.72425 15.7897C3.45061 15.516 3.29688 15.1449 3.29688 14.7579V4.54373M5.48562 4.54373V3.08456C5.48562 2.69757 5.63936 2.32642 5.91301 2.05278C6.18665 1.77913 6.5578 1.6254 6.94479 1.6254H9.86312C10.2501 1.6254 10.6213 1.77913 10.8949 2.05278C11.1686 2.32642 11.3223 2.69757 11.3223 3.08456V4.54373" stroke="#767676" stroke-width="1.45938" stroke-linecap="round" stroke-linejoin="round"/>
</g>
<defs>
<clipPath id="clip0_207_3050">
<rect width="15.0569" height="16.275" fill="white" transform="translate(0.648438 0.166229)"/>
</clipPath>
</defs>
</svg>
