<svg width="14" height="14" viewBox="0 0 14 14" fill="none" xmlns="http://www.w3.org/2000/svg">
<path fill-rule="evenodd" clip-rule="evenodd" d="M0.727539 13.7246H3.09118V5.92461H0.727539V13.7246ZM13.7275 6.57461C13.7275 5.85961 13.1957 5.27461 12.5457 5.27461H8.81708L9.37845 2.30411L9.39618 2.09611C9.39618 1.82961 9.29572 1.58261 9.13618 1.40711L8.50981 0.724609L4.62163 5.00811C4.40299 5.24211 4.27299 5.56711 4.27299 5.92461V12.4246C4.27299 13.1396 4.80481 13.7246 5.45481 13.7246H10.773C11.2634 13.7246 11.683 13.3996 11.8603 12.9316L13.6448 8.34911C13.698 8.19961 13.7275 8.04361 13.7275 7.87461V6.63311L13.7216 6.62661L13.7275 6.57461Z" fill="#9B9B9B"/>
</svg>
