<svg width="17" height="17" viewBox="0 0 17 17" fill="none" xmlns="http://www.w3.org/2000/svg">
<path fill-rule="evenodd" clip-rule="evenodd" d="M13.5985 4.1109C13.3126 1.7993 11.0704 0 8.34622 0C5.62212 0 3.37992 1.7993 3.09402 4.1109C2.81642 4.2312 2.59262 4.4413 2.46522 4.7011C2.36122 4.7093 2.26122 4.7194 2.16562 4.7319C1.61802 4.8033 1.03612 4.9727 0.584222 5.4447C0.132232 5.9167 0.016802 6.4756 0.00175203 6.9917C-0.012008 7.4636 0.0574523 8.0415 0.133972 8.6783L0.538622 12.0485C0.640522 12.8975 0.728122 13.6276 0.879922 14.209C1.04252 14.8321 1.30812 15.411 1.85672 15.8691C2.40542 16.3272 3.05102 16.5091 3.73232 16.5907C4.36792 16.6668 5.15472 16.6667 6.06962 16.6667H10.5249C11.4275 16.6667 12.2042 16.6668 12.8326 16.5921C13.5063 16.512 14.1452 16.3333 14.6911 15.884C15.2371 15.4347 15.5071 14.8653 15.6769 14.2513C15.8352 13.6785 15.9328 12.959 16.0461 12.1228L16.5063 8.7301C16.5938 8.0858 16.6731 7.5018 16.6662 7.0248C16.6587 6.5036 16.55 5.9372 16.0969 5.4572C15.6439 4.9772 15.0559 4.8053 14.5031 4.7328C14.4152 4.7213 14.3236 4.7118 14.2286 4.704C14.1015 4.4428 13.877 4.2316 13.5985 4.1109ZM7.52312 4.666H10.2991L11.9067 4.6667C12.0364 4.4228 12.2525 4.226 12.5175 4.1111C12.2359 2.3981 10.5322 1 8.34622 1C6.16022 1 4.45652 2.3981 4.17502 4.1111C4.44002 4.226 4.65602 4.4228 4.78582 4.6667L7.52312 4.666Z" fill="#0500FF"/>
</svg>
