<svg width="13" height="14" viewBox="0 0 13 14" fill="none" xmlns="http://www.w3.org/2000/svg">
<path d="M0.980179 13.5258C0.798698 13.5258 0.645303 13.4632 0.519994 13.3379C0.394686 13.2125 0.332031 13.0592 0.332031 12.8777V1.211C0.332031 1.02952 0.394686 0.876124 0.519994 0.750815C0.645303 0.625507 0.798698 0.562853 0.980179 0.562853H10.0543C10.2357 0.562853 10.3891 0.625507 10.5144 0.750815C10.6397 0.876124 10.7024 1.02952 10.7024 1.211V3.15545H9.40611V1.85915H1.62833V12.2295H9.40611V10.9332H10.7024V12.8777C10.7024 13.0592 10.6397 13.2125 10.5144 13.3379C10.3891 13.4632 10.2357 13.5258 10.0543 13.5258H0.980179ZM9.40611 9.63693V7.69248H4.86907V6.39619H9.40611V4.45174L12.6468 7.04434L9.40611 9.63693Z" fill="white"/>
</svg>
