<svg width="14" height="14" viewBox="0 0 14 14" fill="none" xmlns="http://www.w3.org/2000/svg">
<path d="M10.0562 3.10003H13.2969V4.39632H12.0007V12.8222C12.0007 13.0037 11.938 13.1571 11.8127 13.2824C11.6874 13.4077 11.534 13.4704 11.3525 13.4704H2.27843C2.09695 13.4704 1.94355 13.4077 1.81824 13.2824C1.69294 13.1571 1.63028 13.0037 1.63028 12.8222V4.39632H0.333984V3.10003H3.57473V1.15558C3.57473 0.974099 3.63738 0.820704 3.76269 0.695395C3.888 0.570087 4.04139 0.507433 4.22287 0.507433H9.40806C9.58954 0.507433 9.74294 0.570087 9.86825 0.695395C9.99355 0.820704 10.0562 0.974099 10.0562 1.15558V3.10003ZM4.87102 6.34077V10.2297H6.16732V6.34077H4.87102ZM7.46362 6.34077V10.2297H8.75991V6.34077H7.46362ZM4.87102 1.80373V3.10003H8.75991V1.80373H4.87102Z" fill="#878A99"/>
</svg>
