<svg width="14" height="9" viewBox="0 0 14 9" fill="none" xmlns="http://www.w3.org/2000/svg">
<path d="M0.980469 4.12004C0.980469 3.99559 1.01936 3.89448 1.09714 3.81671C1.17491 3.73893 1.27602 3.70004 1.40047 3.70004H11.7138L8.96047 0.946706C8.86714 0.853373 8.82047 0.744483 8.82047 0.620039C8.82047 0.495595 8.86714 0.394484 8.96047 0.316706C9.0538 0.238928 9.16269 0.200039 9.28714 0.200039C9.41158 0.200039 9.52047 0.23115 9.6138 0.293372L13.1138 3.79337C13.176 3.88671 13.2071 3.99559 13.2071 4.12004C13.2071 4.24448 13.176 4.35337 13.1138 4.44671L9.6138 7.94671C9.52047 8.00893 9.41158 8.04004 9.28714 8.04004C9.16269 8.04004 9.0538 8.00115 8.96047 7.92337C8.86714 7.84559 8.82047 7.74448 8.82047 7.62004C8.82047 7.49559 8.86714 7.38671 8.96047 7.29337L11.7138 4.54004H1.40047C1.27602 4.54004 1.17491 4.50115 1.09714 4.42337C1.01936 4.34559 0.980469 4.24448 0.980469 4.12004Z" fill="#4B93FF"/>
</svg>
